<?xml version="1.0" encoding="UTF-8" standalone="no"?>
<svg
   xmlns:dc="http://purl.org/dc/elements/1.1/"
   xmlns:cc="http://creativecommons.org/ns#"
   xmlns:rdf="http://www.w3.org/1999/02/22-rdf-syntax-ns#"
   xmlns:svg="http://www.w3.org/2000/svg"
   xmlns="http://www.w3.org/2000/svg"
   xmlns:xlink="http://www.w3.org/1999/xlink"
   xmlns:sodipodi="http://sodipodi.sourceforge.net/DTD/sodipodi-0.dtd"
   xmlns:inkscape="http://www.inkscape.org/namespaces/inkscape"
   id="Untitled-4"
   version="1.1"
   x="0px"
   y="0px"
   width="1280"
   height="720"
   inkscape:version="0.91 r13725"
   sodipodi:docname="kTitleCardb.svg"
   style="image-rendering:auto">
  <metadata
     id="metadata4924">
    <rdf:RDF>
      <cc:Work
         rdf:about="">
        <dc:format>image/svg+xml</dc:format>
        <dc:type
           rdf:resource="http://purl.org/dc/dcmitype/StillImage" />
        <dc:title></dc:title>
      </cc:Work>
    </rdf:RDF>
  </metadata>
  <sodipodi:namedview
     pagecolor="#ffffff"
     bordercolor="#666666"
     borderopacity="1"
     objecttolerance="10"
     gridtolerance="10"
     guidetolerance="10"
     inkscape:pageopacity="0"
     inkscape:pageshadow="2"
     inkscape:window-width="1920"
     inkscape:window-height="1018"
     id="namedview4922"
     showgrid="false"
     inkscape:zoom="0.75041707"
     inkscape:cx="514.01068"
     inkscape:cy="279.36295"
     inkscape:window-x="-8"
     inkscape:window-y="-8"
     inkscape:window-maximized="1"
     inkscape:current-layer="Untitled-4" />
  <defs
     id="defs4710">
    <symbol
       id="Symbol_3"
       overflow="visible"
       style="overflow:visible">
      <path
         d="m 69.65,-195 q 0,0.55 0.55,1.7 l -0.3,-0.05 q -14.7,7.95 -20.7,24.35 -2.35,5.45 -3.95,11.1 l -0.05,0.1 0,0.45 q -3.1,-1.7 -7.2,-1.75 -6.9,0.4 -12.85,4.1 -1.2,0.45 -2.45,1.65 l -1.55,-4.55 q -11.75,-28.7 -41.2,-34.4 l 0.1,-2.2 q -0.15,-0.7 -0.8,-0.9 -2.35,1.05 -2,4.55 -1.05,8.1 -0.4,16.4 2.2,27.25 22.05,46.35 l 4.95,4.3 q -1,2.8 -1.5,5.6 -2.6,10.4 -3.3,21.3 -0.4,38.15 -0.4,76.35 -0.85,9.8 -2.6,19.35 l -3.8,17.55 Q -8.6,22.15 -10,27.9 l -1.3,4.05 0,0.1 q -2.1,0.5 -3.05,1.5 -2.05,3.95 -0.15,8.25 l 0.15,0.15 0.35,2.65 -0.25,2.95 0.15,0.1 -0.05,0.25 -0.2,0.05 q -1.25,5.8 -3.25,10.3 -8.95,16 -25.4,24.3 -20.7,12.25 -44,10.8 -12.15,-3.3 -21.35,-12.3 -9.15,-6.4 -15.95,-15.35 -14.6,-23.3 -5.9,-49.75 2.65,-9.75 5.85,-19.5 1.05,-2.45 1.5,-4.9 l 0.7,-0.8 q -0.1,-1.15 -1.4,-0.85 -19.7,18 -24.85,44.5 -14.3,67.15 30.75,119.2 12.15,13.1 27.65,20.6 l 12.7,2.85 q 5.45,1.5 10.85,3.3 11.3,3.65 22.65,0.9 l 2.65,-0.65 -0.1,0.15 0,0.15 -0.05,0 0,0.05 q -0.9,2.45 -0.75,4.95 l 0.05,0.1 0,0.1 0.7,0.75 0.35,-0.4 q 4.65,2.45 8.1,3.3 16.25,4.05 33.6,4.95 27.65,1.55 55.45,-0.1 16.3,-0.05 32,-2.35 8.2,-1.95 16.75,-2.95 l 3.6,-0.05 0,0.05 0.5,-0.1 0.15,0 17.15,-1.85 q 4.75,-0.35 8.25,-2.9 1.7,0.7 3.65,0.85 7.35,2.75 14.55,-0.45 1.15,-0.3 1.85,-1 1.65,-7.75 -4.05,-13.7 -13.9,-12.6 -33,-12.7 l -5.5,0.7 q -2.55,-1.25 -5.3,-1.95 l -2.05,-0.4 0.6,-0.9 q 5.15,-7.85 7.65,-16.85 7.7,-29.6 -3.5,-58.05 -3.55,-8.85 -7.8,-15.7 -2.85,-0.9 -5.9,-0.45 L 94.75,63.9 Q 91.6,57.4 87.55,50.4 74.3,26.4 62.55,1.7 52.45,-19.65 44.95,-41.75 L 40.7,-55.05 Q 39,-63.7 36.65,-72.25 l 3.1,1.75 q 13.45,7.6 28.45,8.9 9.1,0.6 13.25,-6.9 0.3,-12.75 -7.2,-25 L 60.6,-134.3 q 1.85,-1 3,-3.2 3.1,-2.65 5.1,-7.3 9.55,-17.75 7.9,-37.65 -0.8,-8.25 -6.95,-12.55"
         id="path4713"
         inkscape:connector-curvature="0"
         style="fill:#000000" />
      <path
         d="m 73.7,-186.1 -3.35,-6.9 -4.45,3.85 q -4.6,4.5 -8.05,9.75 -5.3,8.25 -8.45,17.4 -0.6,2.9 -1.9,6.1 6.25,5.15 9.55,13 l 2.7,6.3 q 0.6,-1 1.3,-1.6 3.45,-3.75 5.65,-8.4 6.4,-12.5 7.85,-26.2 0.7,-6.8 -0.85,-13.3"
         id="path4715"
         inkscape:connector-curvature="0"
         style="fill:#ff8089" />
      <path
         d="m 116.3,160.35 3.55,2 q 13.45,6.1 15.85,19.6 l -0.2,0.45 5.5,0.6 -0.45,-1.3 q -1.85,-4.8 -5,-8.85 -2.9,-3.45 -6.25,-6.45 l -1.85,-1.9 q 0,-0.3 0.25,-0.45 9.1,3.5 13.8,12.85 1.55,2.9 2.25,5.75 0.1,0.5 -0.45,0.7 4.05,0.7 7.25,-0.85 l 1.25,-0.55 q 0.95,-6.25 -4.2,-10.65 -11,-9.45 -25.25,-10.8 l -6.05,-0.15"
         id="path4717"
         inkscape:connector-curvature="0"
         style="fill:#ff8089" />
      <path
         d="m 23.25,-151.3 q 1,3.75 1.25,7.8 0.7,3.1 -0.35,5.25 -1,-1.85 -0.65,-4.65 -0.55,-4.95 -2.15,-9.6 -4.95,-14.5 -16,-25.25 -7.75,-7.3 -17.65,-11.1 -2.8,-0.95 -5.7,-1.3 l -2.25,-0.1 -0.85,6.7 q -0.5,15.75 5,30.15 5.3,13.7 16.2,23.8 3.8,3.7 8,6.85 l 3.25,2.45 0.1,0.85 -0.25,0 -0.9,-0.15 -0.3,-0.15 -0.35,-0.1 -2.45,-1.4 -2,-1.5 -0.6,2.6 q -1.55,7.2 -2.45,14.55 -2.2,19.25 -0.9,38.9 1.7,21.9 0.55,43.85 -0.25,6.9 -1.2,13.65 -1.85,9.85 -4.25,19.6 l -4,20.7 q 7.2,-1.1 14.25,0.7 2.55,0.4 5.05,1.85 1.45,-7.8 1.9,-15.65 0.7,-14.7 -1.1,-29 l -3.1,-19.4 q 2.75,6.3 4.05,14.5 3.9,22.05 1.1,44.45 -0.75,9.4 -4.5,16.3 Q 9.9,40.5 11.35,35.7 L 11.5,34.8 Q 8.95,34.9 6.35,33.9 1.35,32.9 -3.7,33 l 4.55,2.75 Q 2.4,36.4 3,37.65 L 0.2,37.45 Q -4,36.6 -7.6,34.15 -8.25,33.8 -7.45,33.4 q -3,0.4 -4.85,1.65 -0.7,1.95 -0.15,3.9 l 0.75,2.65 10.35,1.8 q 2.2,0.35 3.05,2.05 l -11.9,-1 q 3.65,5.1 9.1,8.3 3.35,2.1 6.4,3.15 3.55,-2.85 5.95,-7.25 7,-12.65 10.35,-26.5 4.85,-16.45 7.9,-33.35 1.65,-8.45 2.4,-17.1 -0.5,-3.6 1.15,-6 l 0.95,1.05 0.45,1.3 0.05,0.8 -0.05,0.85 -0.35,1.65 Q 33.5,-20 32.15,-11.55 30,5.15 25.2,21.25 21.85,32.55 17.2,43.55 13.1,53.25 6.15,59 2.25,58.6 -1,56.05 q -4.95,-2.8 -10.1,-8.75 -1.85,9.75 -6.3,17 -8.8,13.5 -26.9,22.75 -18.15,9.25 -33.95,10.05 -18.55,0.5 -31.35,-12.65 -15.25,-11.1 -23.1,-27.9 -7.35,-25.15 2.55,-49.3 1.85,-6.35 5.15,-13.7 l -0.6,0.45 q -3.5,3.45 -6,7.6 -8.2,13.4 -12.8,28.15 -11.6,45.2 7.35,88.05 12.15,27.8 36.75,45.55 7.15,5.85 15.9,8.45 5.6,0.85 11.1,2.4 8.95,3.35 18.25,4.9 l 9.3,-0.6 q 2.3,-0.95 4.55,-1.2 0.85,0.1 0.8,0.55 l 0.5,-1.6 0.05,0 q 5.4,-12.3 15.1,-21.65 0.7,-0.2 1.05,0.4 -1.45,3.35 -4.35,6.45 -7.3,8 -10.25,18.25 l -0.9,4.75 0,0.05 -0.35,0.3 -0.1,0.15 -0.1,0.1 q 14.2,3.4 29.3,5.4 35.2,2.75 71.05,0.65 l 22,-1.35 q 9.1,-2 18.35,-3.5 2.75,-0.45 7.4,-0.1 l 2,-0.3 q -0.75,-0.65 -1.15,-1.7 -1.8,-3 -4.45,-5.5 l -5,-3.85 q -1.6,-0.85 -0.6,-1.9 7.15,1.65 11.4,8.4 2,2.05 1.65,4.4 l 13.2,-1.3 0.9,-0.15 -0.65,-1.85 q -2.35,-6 -7.05,-10.5 -3.65,-3.75 -8.3,-5.8 -2.5,-0.65 -4.15,-1.9 0.65,-0.7 1.95,-0.55 3.15,0.25 6,2.05 7.35,4.15 11.65,11.4 1.65,2.65 2.55,5.6 0.3,0.6 -0.1,1.2 5.1,-0.05 3.95,-5.55 -4.35,-8.9 -13.5,-13.2 l -7.3,-4.05 -0.45,0 -0.4,-0.45 q -2.75,-1.25 -5.55,-1.85 l -2.3,-0.35 -0.3,0.45 -0.2,0.2 -0.15,0 q -1.2,0.05 -1.6,-0.95 -18.7,-0.8 -36.3,3.9 -12.9,2.95 -25.4,7.7 -3.4,2.1 -6.9,1.9 -10.25,7.85 -22.6,11 -5.55,1.75 -9.25,-0.85 4.15,-1.45 9.6,-1.9 8.85,-2.75 16.65,-8 35.55,-21 49.05,-59.05 Q 82.4,89.65 61.3,80.05 49.65,77.95 38.25,78.9 l -0.15,0 -9,1.25 q -3.75,0.7 -7.4,1.75 l -2.45,0.75 q -0.75,0.2 -8.8,0.2 l 9.05,-3.4 2.2,-0.6 7.4,-1.7 q 9.6,-1.8 19.65,-1.8 37.55,2.35 29.3,39.05 -11.15,32.05 -38.75,51.85 8.25,-3 16.85,-5.25 21.35,-6.6 45,-5.75 l 3.3,-4.7 q 4.55,-8.15 6.5,-17.05 6,-29 -5.6,-56.05 -2.7,-6.15 -5.6,-10.75 l -11.25,0.55 -26.8,2.4 q -9,1.35 -16,-0.5 5.4,-2.05 12.75,-2 L 91.35,64.05 75.5,33.85 53.7,-10.8 q -5.35,-12.1 -9.6,-24.5 l -1.85,-5.6 q -1.1,-2.95 -2.05,-5.95 l -0.65,-2.05 -0.65,-2.2 q -2.2,-7.85 -3.3,-15.85 -0.65,-3.15 -0.5,-6.2 -3.25,-1.85 -4.3,-3.1 4.2,0.95 8.75,3.1 18.5,10.95 37.15,6.65 3.7,-3.55 2.3,-8.7 -3.55,-10.6 -8.45,-20.85 -2.5,-6.9 -4.5,-14.05 -4.05,-13 -8.95,-25.8 -3.2,-10.45 -10.75,-17.8 -7.85,-4.8 -16.25,-0.8 -3.15,2.25 -6.85,3.2"
         id="path4719"
         inkscape:connector-curvature="0"
         style="fill:#000000" />
      <path
         d="m 30.1,-154.5 q -3.15,2.25 -6.85,3.2 1,3.75 1.25,7.8 0.7,3.1 -0.35,5.25 -1,-1.85 -0.65,-4.65 -0.55,-4.95 -2.15,-9.6 -4.95,-14.5 -16,-25.25 -7.75,-7.3 -17.65,-11.1 -2.8,-0.95 -5.7,-1.3 l -2.25,-0.1 -0.85,6.7 q -0.5,15.75 5,30.15 5.3,13.7 16.2,23.8 3.8,3.7 8,6.85 l 3.25,2.45 0.1,0.85 -0.25,0 -0.9,-0.15 -0.3,-0.15 -0.35,-0.1 -2.45,-1.4 -2,-1.5 -0.6,2.6 q -1.55,7.2 -2.45,14.55 -2.2,19.25 -0.9,38.9 1.7,21.9 0.55,43.85 -0.25,6.9 -1.2,13.65 -1.85,9.85 -4.25,19.6 l -4,20.7 q 7.2,-1.1 14.25,0.7 2.55,0.4 5.05,1.85 1.45,-7.8 1.9,-15.65 0.7,-14.7 -1.1,-29 l -3.1,-19.4 q 2.75,6.3 4.05,14.5 3.9,22.05 1.1,44.45 -0.75,9.4 -4.5,16.3 Q 9.9,40.5 11.35,35.7 L 11.5,34.8 Q 8.95,34.9 6.35,33.9 1.35,32.9 -3.7,33 l 4.55,2.75 Q 2.4,36.4 3,37.65 L 0.2,37.45 Q -4,36.6 -7.6,34.15 -8.25,33.8 -7.45,33.4 q -3,0.4 -4.85,1.65 -0.7,1.95 -0.15,3.9 l 0.75,2.65 10.35,1.8 q 2.2,0.35 3.05,2.05 l -11.9,-1 q 3.65,5.1 9.1,8.3 3.35,2.1 6.4,3.15 3.55,-2.85 5.95,-7.25 7,-12.65 10.35,-26.5 4.85,-16.45 7.9,-33.35 1.65,-8.45 2.4,-17.1 -0.5,-3.6 1.15,-6 l 0.95,1.05 0.45,1.3 5.1,-16.9 0,-0.05 -0.65,-2.2 q -2.2,-7.85 -3.3,-15.85 -0.65,-3.15 -0.5,-6.2 -3.25,-1.85 -4.3,-3.1 4.2,0.95 8.75,3.1 18.5,10.95 37.15,6.65 3.7,-3.55 2.3,-8.7 -3.55,-10.6 -8.45,-20.85 -2.5,-6.9 -4.5,-14.05 -4.05,-13 -8.95,-25.8 -3.2,-10.45 -10.75,-17.8 -7.85,-4.8 -16.25,-0.8"
         id="path4721"
         inkscape:connector-curvature="0"
         style="fill:#ff8089" />
      <path
         d="m 39.7,-129.65 q -0.8,-0.05 -1.35,0.65 -4.45,8.65 -1.45,15.5 2.25,-0.7 3,-3.55 2.35,-6.85 -0.2,-12.6"
         id="path4723"
         inkscape:connector-curvature="0"
         style="fill:#000000" />
      <path
         d="M 51.9,-128.75 50.85,-129 q -3.75,7.3 -1.65,14.4 2.05,-0.15 2.2,-2.95 1.45,-5.7 0.5,-11.2"
         id="path4725"
         inkscape:connector-curvature="0"
         style="fill:#000000" />
      <path
         d="m 71.7,-73.3 1.6,-0.55 q 1.5,-4.25 -4.9,-3.4 -10.25,4.9 2.05,5.7 1.3,-0.85 1.25,-1.75"
         id="path4727"
         inkscape:connector-curvature="0"
         style="fill:#000000" />
      <path
         d="m 40.2,-46.85 -0.65,-2.05 0,0.05 -5.1,16.9 0.05,0.8 -0.05,0.85 -0.35,1.65 Q 33.5,-20 32.15,-11.55 30,5.15 25.2,21.25 22.05,49.6 21.7,75.9 l 0,2.95 7.4,-1.7 q 9.6,-1.8 19.65,-1.8 37.55,2.35 29.3,39.05 -11.15,32.05 -38.75,51.85 8.25,-3 16.85,-5.25 21.35,-6.6 45,-5.75 l 3.3,-4.7 q 4.55,-8.15 6.5,-17.05 6,-29 -5.6,-56.05 -2.7,-6.15 -5.6,-10.75 l -11.25,0.55 -26.8,2.4 q -9,1.35 -16,-0.5 5.4,-2.05 12.75,-2 L 91.35,64.05 75.5,33.85 53.7,-10.8 q -5.35,-12.1 -9.6,-24.5 l -1.85,-5.6 q -1.1,-2.95 -2.05,-5.95"
         id="path4729"
         inkscape:connector-curvature="0"
         style="fill:#ffbfc4" />
      <path
         d="m 25.2,21.25 q -3.35,11.3 -8,22.3 Q 13.1,53.25 6.15,59 2.25,58.6 -1,56.05 q -4.95,-2.8 -10.1,-8.75 -1.85,9.75 -6.3,17 -8.8,13.5 -26.9,22.75 -18.15,9.25 -33.95,10.05 -18.55,0.5 -31.35,-12.65 -15.25,-11.1 -23.1,-27.9 -7.35,-25.15 2.55,-49.3 1.85,-6.35 5.15,-13.7 l -0.6,0.45 q -3.5,3.45 -6,7.6 -8.2,13.4 -12.8,28.15 -11.6,45.2 7.35,88.05 12.15,27.8 36.75,45.55 7.15,5.85 15.9,8.45 5.6,0.85 11.1,2.4 8.95,3.35 18.25,4.9 l 9.3,-0.6 q 2.3,-0.95 4.55,-1.2 0.85,0.1 0.8,0.55 l 0.5,-1.6 0.05,0 q 5.4,-12.3 15.1,-21.65 0.7,-0.2 1.05,0.4 -1.45,3.35 -4.35,6.45 -7.3,8 -10.25,18.25 l -0.9,4.75 0,0.05 -0.35,0.3 -0.1,0.15 -0.1,0.1 q 14.2,3.4 29.3,5.4 35.2,2.75 71.05,0.65 l 22,-1.35 q 9.1,-2 18.35,-3.5 2.75,-0.45 7.4,-0.1 l 2,-0.3 q -0.75,-0.65 -1.15,-1.7 -1.8,-3 -4.45,-5.5 l -5,-3.85 q -1.6,-0.85 -0.6,-1.9 7.15,1.65 11.4,8.4 2,2.05 1.65,4.4 l 13.2,-1.3 0.9,-0.15 -0.65,-1.85 q -2.35,-6 -7.05,-10.5 -3.65,-3.75 -8.3,-5.8 -2.5,-0.65 -4.15,-1.9 0.65,-0.7 1.95,-0.55 3.15,0.25 6,2.05 7.35,4.15 11.65,11.4 1.65,2.65 2.55,5.6 0.3,0.6 -0.1,1.2 5.1,-0.05 3.95,-5.55 -4.35,-8.9 -13.5,-13.2 l -7.3,-4.05 -0.45,0 -0.4,-0.45 q -2.75,-1.25 -5.55,-1.85 l -2.3,-0.35 -0.3,0.45 -0.2,0.2 -0.15,0 q -1.2,0.05 -1.6,-0.95 -18.7,-0.8 -36.3,3.9 -12.9,2.95 -25.4,7.7 -3.4,2.1 -6.9,1.9 -10.25,7.85 -22.6,11 -5.55,1.75 -9.25,-0.85 4.15,-1.45 9.6,-1.9 8.85,-2.75 16.65,-8 35.55,-21 49.05,-59.05 Q 82.4,89.65 61.3,80.05 49.65,77.95 38.25,78.9 l -0.15,0 -9,1.25 q -3.75,0.7 -7.4,1.75 l -2.45,0.75 q -0.75,0.2 -8.8,0.2 l 9.05,-3.4 2.2,-0.6 0,-2.95 q 0.35,-26.3 3.5,-54.65"
         id="path4731"
         inkscape:connector-curvature="0"
         style="fill:#ff8089" />
    </symbol>
  </defs>
  <g
     id="Symbol_2"
     overflow="visible"
     transform="translate(20.266995,189.23424)"
     style="overflow:visible">
    <use
       xlink:href="#Symbol_3"
       transform="matrix(0.822,0,0,0.822,124.75,160.5)"
       id="use4734"
       x="0"
       y="0"
       width="100%"
       height="100%" />
    <use
       xlink:href="#Symbol_3"
       transform="matrix(-0.822,0,0,0.822,1114.85,160.85)"
       id="use4736"
       x="0"
       y="0"
       width="100%"
       height="100%" />
    <g
       id="Symbol_4"
       transform="translate(368.75,158.2)">
      <path
         d="m 496.259,24.403 q 0.384,-0.257 0.384,-0.705 0,-0.962 -0.513,-1.346 -0.512,-0.385 -1.602,-0.385 -1.731,0 -4.487,1.795 -2.756,1.858 -2.756,4.55 0,1.089 0.962,1.922 1.025,0.897 3.781,2.307 2.244,1.154 2.244,2.051 -0.449,0.769 -2.18,1.282 -1.73,0.512 -3.268,0.512 -0.193,0 -0.769,-0.192 -0.577,-0.128 -0.77,-0.128 -0.512,0 -1.025,0.256 -0.513,0.257 -0.513,0.769 0,1.538 2.244,1.538 2.627,0 5.576,-1.217 2.884,-1.154 2.884,-3.269 0,-1.153 -0.898,-1.986 -0.961,-0.897 -2.499,-1.602 -1.923,-0.898 -2.692,-1.538 -0.769,-0.641 -0.769,-1.41 0,-1.282 2.115,-2.243 2.115,-1.025 2.82,-1.025 0.128,0 0.577,0.192 0.448,0.192 0.577,0.192 0.192,0 0.577,-0.32"
         id="path4739"
         inkscape:connector-curvature="0"
         style="fill:#000066" />
      <path
         d="m 473.441,26.453 q -2.371,3.461 -2.371,6.985 0,2.115 1.218,3.525 1.217,1.474 3.076,1.474 3.077,0 5.897,-3.076 2.82,-3.076 2.82,-6.665 0,-2.307 -1.346,-3.973 -1.346,-1.73 -3.589,-1.73 -3.333,0 -5.705,3.46 m 5.448,-1.281 q 1.346,0 2.115,1.089 0.769,1.025 0.769,2.756 0,2.755 -2.05,4.998 -2.051,2.243 -4.102,2.243 -0.962,0 -1.539,-0.897 -0.641,-0.897 -0.641,-2.243 0,-2.499 1.603,-5.191 1.602,-2.755 3.845,-2.755"
         id="path4741"
         inkscape:connector-curvature="0"
         style="fill:#000066" />
      <path
         d="m 469.083,15.687 q 0,-1.281 -0.961,-1.281 -0.705,0 -1.346,1.153 -0.641,1.154 -1.731,8.011 -1.153,6.792 -1.153,11.406 0,2.051 0.32,2.948 0.256,0.897 0.961,0.897 0.577,0 1.026,-0.512 0.449,-0.449 0.449,-1.154 0,-0.192 -0.065,-0.641 -0.256,-2.242 -0.256,-4.485 0,-1.859 0.385,-5.063 0.448,-3.204 1.217,-5.896 1.154,-4.229 1.154,-5.383"
         id="path4743"
         inkscape:connector-curvature="0"
         style="fill:#000066" />
      <path
         d="m 455.111,22.993 q -3.333,0 -5.704,3.46 -2.372,3.461 -2.372,6.985 0,2.115 1.218,3.525 1.218,1.474 3.076,1.474 3.077,0 5.897,-3.076 2.82,-3.076 2.82,-6.665 0,-2.307 -1.346,-3.973 -1.346,-1.73 -3.589,-1.73 m -0.257,2.179 q 1.346,0 2.115,1.089 0.77,1.025 0.77,2.756 0,2.755 -2.051,4.998 -2.051,2.243 -4.102,2.243 -0.962,0 -1.539,-0.897 -0.64,-0.897 -0.64,-2.243 0,-2.499 1.602,-5.191 1.602,-2.755 3.845,-2.755"
         id="path4745"
         inkscape:connector-curvature="0"
         style="fill:#000066" />
      <path
         d="m 430.179,25.108 0.064,1.153 q 0,7.69 -2.564,17.815 -0.32,1.346 -0.32,2.115 0,0.256 0.512,0.705 0.577,0.449 0.962,0.449 0.384,0 0.769,-0.577 0.448,-0.513 0.513,-1.09 l 0.384,-2.563 q 0.641,-4.486 1.282,-6.985 0.513,1.089 1.025,1.474 0.449,0.448 1.218,0.448 3.269,0 6.73,-3.652 3.461,-3.653 3.461,-8.139 0,-1.538 -0.961,-2.627 -0.962,-1.026 -2.372,-1.026 -1.923,0 -4.23,1.987 -2.307,2.051 -4.358,5.639 0,-0.384 0.384,-2.755 0.257,-1.923 0.257,-3.269 0,-0.961 -0.321,-1.474 -0.32,-0.512 -0.641,-0.512 -0.705,0 -1.282,0.705 -0.512,0.641 -0.512,2.179 m 11.152,0.512 q 0.448,0.513 0.448,1.538 0,2.82 -2.563,5.704 -2.564,2.883 -4.551,2.883 -0.897,0 -1.41,-0.448 -0.577,-0.449 -0.577,-0.961 0,-1.987 2.82,-5.64 2.885,-3.653 4.807,-3.653 0.641,0 1.026,0.577"
         id="path4747"
         inkscape:connector-curvature="0"
         style="fill:#000066" />
      <path
         d="m 421.334,23.826 q -1.346,0 -2.436,1.217 -1.089,1.218 -2.243,3.525 -2.179,4.422 -2.82,4.422 -0.064,0 -0.256,-0.577 -0.193,-0.577 -0.193,-1.666 -0.128,-4.55 -0.641,-5.704 -0.577,-1.217 -1.474,-1.217 -1.154,0 -2.243,1.025 -1.154,1.026 -3.461,4.871 -1.667,2.755 -2.5,3.588 0,-0.705 0.577,-4.165 0.513,-3.012 0.513,-4.037 0,-2.243 -1.538,-2.243 -0.77,0 -0.77,0.961 0,0.897 -0.384,3.012 -0.897,5.319 -0.897,7.369 0,3.589 0.961,3.589 0.385,0 1.026,-0.192 0.64,-0.192 0.833,-0.385 0.256,-0.256 1.666,-2.819 4.23,-7.562 5.512,-7.562 0.513,0.705 0.769,5.062 0.128,2.628 0.257,3.269 0.128,0.705 0.576,1.153 0.449,0.513 1.026,0.513 0.705,0 1.41,-0.897 0.705,-0.897 2.051,-3.525 1.795,-3.332 2.564,-4.486 0.833,-1.089 1.41,-1.089 0.384,0 0.512,0.769 0.193,0.769 0.385,2.563 0.449,4.486 1.346,5.832 0.833,1.346 1.923,1.346 0.577,0 1.218,-0.513 0.705,-0.513 0.705,-0.961 0,-0.513 -0.834,-0.898 -1.153,-0.512 -1.538,-2.435 -0.449,-1.858 -0.641,-4.165 -0.256,-2.243 -0.769,-3.397 -0.513,-1.153 -1.602,-1.153"
         id="path4749"
         inkscape:connector-curvature="0"
         style="fill:#000066" />
      <path
         d="m 394.927,24.339 q -0.576,0 -0.961,0.512 -0.384,0.449 -0.961,2.115 -1.474,4.037 -3.525,6.344 -2.051,2.243 -3.397,2.243 -1.026,0 -1.026,-2.243 0,-2.499 1.282,-5.96 0.641,-1.73 0.641,-2.755 0,-0.385 -0.321,-0.833 -0.384,-0.385 -0.961,-0.385 -0.833,0 -1.218,0.833 0,1.154 -0.769,4.102 -0.833,3.524 -0.833,5.319 0,2.179 0.961,3.268 0.898,1.025 1.795,1.025 1.602,0 3.461,-1.602 1.859,-1.602 3.589,-4.55 0,0.192 0,0.449 l 0,0.448 q 0,2.756 0.577,4.23 0.641,1.41 1.602,1.41 0.449,0 0.962,-0.321 0.577,-0.32 0.577,-0.705 0,-0.32 -0.577,-0.833 -1.026,-0.961 -1.026,-4.165 0,-2.692 0.833,-5.704 0.257,-0.833 0.257,-0.961 0,-1.281 -0.962,-1.281"
         id="path4751"
         inkscape:connector-curvature="0"
         style="fill:#000066" />
      <path
         d="m 376.34,18.186 q -0.32,-0.384 -0.897,-0.384 -0.961,0 -1.346,1.41 -0.32,1.474 -0.705,3.012 -0.448,1.474 -0.641,1.73 -0.256,0.256 -0.512,0.256 l -2.885,0 q -0.769,0 -0.769,0.769 0,1.41 1.731,1.41 l 1.474,-0.128 q 0.32,0 0.32,0.256 0,0.577 -0.705,3.525 -0.705,3.012 -0.705,4.422 0,3.909 3.333,3.909 2.051,0 3.91,-1.602 1.923,-1.538 1.923,-2.564 0,-0.64 -0.577,-0.64 -0.449,0 -1.282,0.769 -2.115,1.73 -3.269,1.73 -0.833,0 -1.218,-0.449 -0.384,-0.512 -0.384,-2.05 0,-0.898 0.705,-4.038 0.705,-3.14 0.833,-3.268 0.128,-0.192 1.795,-0.384 1.666,-0.257 3.717,-0.385 1.538,-0.064 1.538,-1.153 0,-0.513 -0.256,-0.705 -0.321,-0.193 -1.346,-0.193 -0.833,0 -2.051,0.129 -1.282,0.192 -2.692,0.256 l 0.769,-2.884 q 0.513,-1.794 0.513,-1.987 0,-0.32 -0.321,-0.769"
         id="path4753"
         inkscape:connector-curvature="0"
         style="fill:#000066" />
      <path
         d="m 366.791,21.455 q 0.256,-0.897 0.256,-1.346 0,-0.961 -1.218,-1.794 -1.282,-0.769 -3.717,-0.769 -3.589,0 -6.858,1.73 -3.269,1.73 -3.269,4.614 0,1.474 1.026,2.82 1.025,1.345 5.448,2.755 3.653,1.154 4.55,1.666 0.833,0.513 0.833,1.09 0,1.346 -2.884,2.884 -2.948,1.474 -5.512,1.474 -1.474,0 -2.948,-0.513 -0.256,-0.128 -0.577,-0.128 -0.256,0 -0.513,0.641 -0.256,0.576 -0.256,0.961 0,0.577 0.897,1.025 0.833,0.385 2.5,0.385 1.987,0 4.871,-0.898 2.884,-0.961 4.871,-2.691 2.051,-1.73 2.051,-3.204 0,-1.538 -1.474,-2.564 -1.474,-1.089 -4.871,-2.05 -3.525,-1.026 -4.615,-1.859 -1.025,-0.897 -1.025,-2.05 0,-1.603 2.371,-2.756 2.371,-1.154 5.256,-1.154 1.474,0 2.371,0.385 0.961,0.449 0.961,2.243 1.154,0 1.475,-0.897"
         id="path4755"
         inkscape:connector-curvature="0"
         style="fill:#000066" />
      <path
         d="m 318.593,22.736 q -1.987,0 -4.423,1.987 -2.499,1.987 -4.23,5.191 1.346,-7.562 2.372,-10.318 1.025,-2.819 1.025,-4.421 0,-1.667 -0.961,-1.667 -0.577,0 -1.026,0.321 -0.384,0.32 -0.705,1.346 -0.384,0.961 -1.089,5.126 l -1.41,8.203 q -0.706,4.101 -0.706,5.383 0,0.641 0.577,1.218 0.321,0.32 0.385,0.961 0.128,0.833 0.897,1.346 0.833,0.512 1.795,0.512 3.589,0 6.858,-3.717 3.204,-3.781 3.204,-8.01 0,-1.474 -0.769,-2.499 -0.705,-0.962 -1.794,-0.962 m 0.128,2.884 q 0.256,0.513 0.256,1.218 0,1.666 -1.282,4.037 -1.281,2.371 -3.012,3.653 -1.795,1.282 -3.333,1.282 -1.025,0 -1.73,-1.346 0.961,-3.076 3.717,-6.216 2.756,-3.14 4.679,-3.14 0.384,0 0.705,0.512"
         id="path4757"
         inkscape:connector-curvature="0"
         style="fill:#000066" />
      <path
         d="m 326.284,33.567 q -0.257,-1.026 -0.257,-1.474 0,-1.346 0.513,-2.884 0.513,-1.474 0.513,-1.666 0.064,-0.128 0.769,-1.41 0.321,-0.513 0.321,-0.897 0,-0.577 -0.257,-1.026 -0.192,-0.448 -0.577,-0.448 -0.961,0 -1.346,0.577 -0.448,0.576 -1.281,3.716 -0.898,3.14 -0.898,5.255 0,1.474 0.769,2.628 0.705,1.153 2.051,1.153 1.026,0 2.949,-1.025 1.922,-0.961 4.422,-3.204 -0.064,0.576 -0.064,1.217 -0.192,3.076 -1.538,6.537 -1.346,3.524 -3.333,3.524 -3.846,0 -5.704,-2.755 -0.193,-0.257 -0.321,-0.257 -0.32,0 -0.513,0.449 -0.256,0.385 -0.256,0.833 0,1.026 2.115,2.435 2.115,1.41 4.807,1.41 2.628,0 4.166,-2.563 1.474,-2.564 2.307,-6.409 0.77,-3.845 0.962,-7.626 0.064,-0.704 0.192,-2.435 0.128,-1.345 0.128,-2.243 0,-1.153 -0.192,-1.538 -0.256,-0.384 -0.961,-0.384 -1.282,0 -1.346,2.755 -0.064,2.756 -0.321,3.589 -0.192,0.833 -0.641,1.474 -0.512,0.641 -1.858,1.666 -1.41,1.09 -2.5,1.538 -1.154,0.449 -1.923,0.449 -0.705,0 -0.897,-0.961"
         id="path4759"
         inkscape:connector-curvature="0"
         style="fill:#000066" />
      <path
         d="m 292.25,18.251 q 0.641,-1.923 0.641,-2.243 0,-1.731 -0.961,-1.731 -0.32,0 -0.897,0.321 -0.577,0.32 -0.769,1.281 l -1.923,8.972 q -1.218,-1.217 -2.628,-1.217 -3.333,0 -6.153,3.652 -2.82,3.653 -2.82,7.178 0,1.666 0.769,2.691 0.769,1.026 2.115,1.026 1.731,0 3.846,-1.602 2.051,-1.603 3.909,-4.55 -0.064,0.769 -0.064,1.474 0,4.421 2.244,4.421 1.281,0 2.563,-0.961 1.218,-0.897 1.218,-1.602 0,-0.577 -0.449,-0.577 -0.32,0 -0.641,0.257 -0.833,0.512 -1.602,0.512 -1.218,0 -1.218,-2.755 0,-2.692 0.898,-7.114 0.897,-4.422 1.922,-7.433 m -4.742,9.228 q 0,1.217 -1.667,3.716 -1.602,2.436 -3.14,3.589 -1.539,1.154 -2.628,1.154 -1.154,0 -1.154,-1.731 0,-2.563 2.243,-5.575 2.18,-3.012 4.359,-3.012 0.833,0 1.41,0.641 0.577,0.577 0.577,1.218"
         id="path4761"
         inkscape:connector-curvature="0"
         style="fill:#000066" />
      <path
         d="m 272.51,23.121 q -0.641,-0.705 -1.667,-0.705 -3.204,0 -5.832,3.589 -2.692,3.524 -2.692,7.498 0,2.307 1.218,3.652 1.218,1.282 3.461,1.282 2.628,0 5.127,-1.987 2.436,-1.986 2.436,-3.396 0,-0.705 -0.385,-0.705 -0.256,0 -0.705,0.449 -3.076,3.268 -6.025,3.268 -1.346,0 -1.986,-0.641 -0.641,-0.705 -0.641,-1.858 0,-0.577 0.705,-0.962 3.461,-1.858 5.576,-3.781 2.051,-1.986 2.051,-4.101 0,-0.961 -0.641,-1.602 m -1.667,2.243 q 0,2.115 -5.832,5.575 0.641,-2.691 2.243,-4.55 1.602,-1.858 2.884,-1.858 0.705,0 0.705,0.833"
         id="path4763"
         inkscape:connector-curvature="0"
         style="fill:#000066" />
      <path
         d="m 256.166,18.186 q -0.32,-0.384 -0.897,-0.384 -0.962,0 -1.346,1.41 -0.321,1.474 -0.705,3.012 -0.449,1.474 -0.641,1.73 -0.257,0.256 -0.513,0.256 l -2.884,0 q -0.769,0 -0.769,0.769 0,1.41 1.73,1.41 l 1.474,-0.128 q 0.321,0 0.321,0.256 0,0.577 -0.705,3.525 -0.705,3.012 -0.705,4.422 0,3.909 3.333,3.909 2.051,0 3.909,-1.602 1.923,-1.538 1.923,-2.564 0,-0.64 -0.577,-0.64 -0.448,0 -1.282,0.769 -2.115,1.73 -3.268,1.73 -0.833,0 -1.218,-0.449 -0.385,-0.512 -0.385,-2.05 0,-0.898 0.705,-4.038 0.705,-3.14 0.834,-3.268 0.128,-0.192 1.794,-0.384 1.667,-0.257 3.718,-0.385 1.538,-0.064 1.538,-1.153 0,-0.513 -0.256,-0.705 -0.321,-0.193 -1.346,-0.193 -0.834,0 -2.051,0.129 -1.282,0.192 -2.692,0.256 l 0.769,-2.884 q 0.513,-1.794 0.513,-1.987 0,-0.32 -0.321,-0.769"
         id="path4765"
         inkscape:connector-curvature="0"
         style="fill:#000066" />
      <path
         d="m 244.629,32.221 q 0,-1.666 0.769,-5.704 0.129,-0.769 0.129,-1.153 0,-0.897 -1.09,-0.897 -0.385,0 -0.577,-0.449 -0.577,-1.282 -1.73,-1.282 -3.205,0 -6.41,4.166 -3.268,4.165 -3.268,7.818 0,1.41 0.769,2.307 0.769,0.897 1.858,0.897 1.539,0 3.461,-1.345 1.859,-1.282 3.782,-3.846 0,2.692 0.705,4.166 0.705,1.41 1.731,1.41 0.576,0 1.153,-0.385 0.577,-0.448 0.577,-0.897 0,-0.448 -0.577,-0.769 -1.282,-0.705 -1.282,-4.037 m -1.858,-5.255 q 0,2.563 -2.628,5.575 -2.692,3.076 -4.23,3.076 -1.026,0 -1.026,-1.602 0,-2.243 2.372,-5.639 2.435,-3.397 4.23,-3.397 1.282,0 1.282,1.987"
         id="path4767"
         inkscape:connector-curvature="0"
         style="fill:#000066" />
      <path
         d="m 215.211,23.826 q -1.154,0 -2.244,1.025 -1.153,1.026 -3.461,4.871 -1.666,2.755 -2.499,3.588 0,-0.705 0.577,-4.165 0.512,-3.012 0.512,-4.037 0,-2.243 -1.538,-2.243 -0.769,0 -0.769,0.961 0,0.897 -0.385,3.012 -0.897,5.319 -0.897,7.369 0,3.589 0.961,3.589 0.385,0 1.026,-0.192 0.641,-0.192 0.833,-0.385 0.257,-0.256 1.667,-2.819 4.23,-7.562 5.512,-7.562 0.512,0.705 0.769,5.062 0.128,2.628 0.256,3.269 0.128,0.705 0.577,1.153 0.449,0.513 1.025,0.513 0.705,0 1.41,-0.897 0.705,-0.897 2.051,-3.525 1.795,-3.332 2.564,-4.486 0.833,-1.089 1.41,-1.089 0.385,0 0.513,0.769 0.192,0.769 0.385,2.563 0.448,4.486 1.345,5.832 0.834,1.346 1.923,1.346 0.577,0 1.218,-0.513 0.705,-0.513 0.705,-0.961 0,-0.513 -0.833,-0.898 -1.154,-0.512 -1.538,-2.435 -0.449,-1.858 -0.641,-4.165 -0.257,-2.243 -0.769,-3.397 -0.513,-1.153 -1.603,-1.153 -1.346,0 -2.435,1.217 -1.09,1.218 -2.244,3.525 -2.179,4.422 -2.82,4.422 -0.064,0 -0.256,-0.577 -0.192,-0.577 -0.192,-1.666 -0.128,-4.55 -0.641,-5.704 -0.577,-1.217 -1.474,-1.217"
         id="path4769"
         inkscape:connector-curvature="0"
         style="fill:#000066" />
      <path
         d="m 202.584,17.482 q 0.321,-1.09 0.321,-1.603 0,-0.256 -0.449,-0.576 -0.513,-0.321 -0.897,-0.321 -0.833,0 -1.474,0.577 -0.641,0.577 -0.641,1.154 0,0.64 0.384,1.538 0.064,0.256 0.128,0.448 0.129,0.577 0.449,0.577 0.385,0 1.09,-0.321 0.769,-0.384 1.089,-1.473"
         id="path4771"
         inkscape:connector-curvature="0"
         style="fill:#000066" />
      <path
         d="m 186.625,27.158 q 1.218,0 1.602,4.037 0.385,4.038 1.026,4.999 0.641,0.897 1.795,0.897 1.153,0 1.986,-0.705 0.77,-0.641 0.77,-1.281 0,-0.705 -0.577,-0.705 -0.064,0 -0.128,0.064 -0.641,0.32 -1.09,0.32 -0.705,0 -0.961,-0.833 -0.321,-0.833 -0.705,-4.229 -0.385,-3.012 -1.154,-4.102 -0.769,-1.153 -2.051,-1.153 -1.538,0 -2.82,1.345 -1.282,1.41 -3.013,4.743 -1.73,3.268 -1.922,3.268 -0.129,0 -0.129,-0.192 0,-0.385 0.321,-1.859 0.833,-4.293 0.833,-5.703 0,-1.346 -0.32,-1.795 -0.321,-0.448 -1.026,-0.448 -0.384,0 -0.833,0.705 -0.449,0.577 -0.449,1.153 0,4.614 -0.769,8.716 -0.256,1.217 -0.256,1.922 0,1.538 1.666,1.538 0.449,0 1.09,-0.577 0.705,-0.64 2.948,-4.998 1.731,-3.268 2.628,-4.23 0.833,-0.897 1.538,-0.897"
         id="path4773"
         inkscape:connector-curvature="0"
         style="fill:#000066" />
      <path
         d="m 197.906,24.21 q -0.321,0.577 -0.321,1.474 0,0.385 -0.385,2.307 -1.025,5.512 -1.025,8.011 0,2.499 1.346,2.499 0.513,0 0.961,-0.384 0.449,-0.449 0.449,-0.705 0,-0.129 -0.064,-0.385 -0.256,-1.282 -0.256,-2.371 0,-2.115 0.192,-3.717 0.256,-1.538 1.282,-5.191 0.192,-0.705 0.192,-1.089 0,-0.449 -0.385,-0.769 -0.384,-0.32 -1.089,-0.32 -0.577,0 -0.897,0.64"
         id="path4775"
         inkscape:connector-curvature="0"
         style="fill:#000066" />
      <path
         d="m 166.82,18.058 q -0.448,-0.512 -1.346,-0.512 -0.448,0 -1.217,1.025 -0.834,0.961 -3.782,6.601 -1.859,3.524 -4.615,7.561 -1.538,2.308 -1.986,3.077 -0.513,0.704 -0.513,1.153 0,0.449 0.513,0.897 0.512,0.449 0.897,0.449 0.513,0 0.961,-0.577 0.449,-0.577 2.051,-3.525 1.026,-1.794 1.346,-1.794 0.064,0 0.128,0.064 0.385,0.321 0.77,0.321 0.256,0 1.281,-0.321 1.795,-0.513 3.974,-0.897 2.179,-0.449 2.884,-0.449 0.193,0 1.218,2.179 2.5,5.576 4.23,5.576 0.577,0 0.962,-0.385 0.448,-0.449 0.448,-1.089 0,-0.321 -0.192,-0.577 -0.192,-0.256 -0.897,-0.897 -1.09,-1.09 -2.372,-3.717 -1.346,-2.628 -2.563,-6.344 -0.577,-1.603 -1.09,-3.012 -0.449,-1.09 -0.897,-2.692 l -0.193,-0.577 q 0.129,-0.32 0.129,-0.897 0,-0.577 -0.129,-0.641 m -0.576,6.857 q 0.961,2.948 1.41,4.038 -0.577,0.064 -4.359,0.833 -0.705,0.128 -1.666,0.256 -1.218,0.128 -1.538,0.32 l 2.499,-4.678 q 1.603,-2.948 2.372,-4.55 0.256,0.705 1.282,3.781"
         id="path4777"
         inkscape:connector-curvature="0"
         style="fill:#000066" />
      <path
         d="m 140.286,23.441 q -0.256,-0.384 -0.962,-0.384 -1.281,0 -1.345,2.755 -0.065,2.756 -0.321,3.589 -0.192,0.833 -0.641,1.474 -0.513,0.641 -1.859,1.666 -1.41,1.09 -2.499,1.538 -1.154,0.449 -1.923,0.449 -0.705,0 -0.897,-0.961 -0.257,-1.026 -0.257,-1.474 0,-1.346 0.513,-2.884 0.513,-1.474 0.513,-1.666 0.064,-0.128 0.769,-1.41 0.32,-0.513 0.32,-0.897 0,-0.577 -0.256,-1.026 -0.192,-0.448 -0.577,-0.448 -0.961,0 -1.346,0.577 -0.448,0.576 -1.282,3.716 -0.897,3.14 -0.897,5.255 0,1.474 0.769,2.628 0.705,1.153 2.051,1.153 1.026,0 2.948,-1.025 1.923,-0.961 4.423,-3.204 -0.064,0.576 -0.064,1.217 -0.192,3.076 -1.538,6.537 -1.346,3.524 -3.333,3.524 -3.846,0 -5.705,-2.755 -0.192,-0.257 -0.32,-0.257 -0.32,0 -0.513,0.449 -0.256,0.385 -0.256,0.833 0,1.026 2.115,2.435 2.115,1.41 4.807,1.41 2.628,0 4.166,-2.563 1.474,-2.564 2.307,-6.409 0.769,-3.845 0.962,-7.626 0.064,-0.704 0.192,-2.435 0.128,-1.345 0.128,-2.243 0,-1.153 -0.192,-1.538"
         id="path4779"
         inkscape:connector-curvature="0"
         style="fill:#000066" />
      <path
         d="m 125.096,15.687 q 0,-1.281 -0.962,-1.281 -0.705,0 -1.345,1.153 -0.641,1.154 -1.731,8.011 -1.154,6.792 -1.154,11.406 0,2.051 0.321,2.948 0.256,0.897 0.961,0.897 0.577,0 1.026,-0.512 0.448,-0.449 0.448,-1.154 0,-0.192 -0.064,-0.641 -0.256,-2.242 -0.256,-4.485 0,-1.859 0.384,-5.063 0.449,-3.204 1.218,-5.896 1.154,-4.229 1.154,-5.383"
         id="path4781"
         inkscape:connector-curvature="0"
         style="fill:#000066" />
      <path
         d="m 116.059,14.406 q -0.705,0 -1.346,1.153 -0.641,1.154 -1.731,8.011 -1.153,6.792 -1.153,11.406 0,2.051 0.32,2.948 0.256,0.897 0.961,0.897 0.577,0 1.026,-0.512 0.449,-0.449 0.449,-1.154 0,-0.192 -0.064,-0.641 -0.257,-2.242 -0.257,-4.485 0,-1.859 0.385,-5.063 0.448,-3.204 1.217,-5.896 1.154,-4.229 1.154,-5.383 0,-1.281 -0.961,-1.281"
         id="path4783"
         inkscape:connector-curvature="0"
         style="fill:#000066" />
      <path
         d="m 107.022,26.517 q 0.128,-0.769 0.128,-1.153 0,-0.897 -1.09,-0.897 -0.384,0 -0.577,-0.449 -0.576,-1.282 -1.73,-1.282 -3.205,0 -6.409,4.166 -3.269,4.165 -3.269,7.818 0,1.41 0.769,2.307 0.769,0.897 1.859,0.897 1.538,0 3.461,-1.345 1.858,-1.282 3.781,-3.846 0,2.692 0.705,4.166 0.705,1.41 1.731,1.41 0.577,0 1.153,-0.385 0.577,-0.448 0.577,-0.897 0,-0.448 -0.577,-0.769 -1.281,-0.705 -1.281,-4.037 0,-1.666 0.769,-5.704 m -3.91,-1.538 q 1.282,0 1.282,1.987 0,2.563 -2.628,5.575 -2.692,3.076 -4.23,3.076 -1.026,0 -1.026,-1.602 0,-2.243 2.372,-5.639 2.435,-3.397 4.23,-3.397"
         id="path4785"
         inkscape:connector-curvature="0"
         style="fill:#000066" />
      <path
         d="m 85.358,27.158 q 1.218,0 1.603,4.037 0.384,4.038 1.025,4.999 0.641,0.897 1.795,0.897 1.153,0 1.986,-0.705 0.77,-0.641 0.77,-1.281 0,-0.705 -0.577,-0.705 -0.064,0 -0.128,0.064 -0.641,0.32 -1.09,0.32 -0.705,0 -0.961,-0.833 -0.321,-0.833 -0.705,-4.229 -0.385,-3.012 -1.154,-4.102 -0.769,-1.153 -2.051,-1.153 -1.538,0 -2.82,1.345 -1.282,1.41 -3.013,4.743 -1.73,3.268 -1.922,3.268 -0.129,0 -0.129,-0.192 0,-0.385 0.321,-1.859 0.833,-4.293 0.833,-5.703 0,-1.346 -0.32,-1.795 -0.321,-0.448 -1.026,-0.448 -0.384,0 -0.833,0.705 -0.449,0.577 -0.449,1.153 0,4.614 -0.769,8.716 -0.256,1.217 -0.256,1.922 0,1.538 1.666,1.538 0.449,0 1.09,-0.577 0.705,-0.64 2.948,-4.998 1.731,-3.268 2.628,-4.23 0.833,-0.897 1.538,-0.897"
         id="path4787"
         inkscape:connector-curvature="0"
         style="fill:#000066" />
      <path
         d="m 74.462,17.482 q 0.321,-1.09 0.321,-1.603 0,-0.256 -0.449,-0.576 -0.513,-0.321 -0.897,-0.321 -0.833,0 -1.474,0.577 -0.641,0.577 -0.641,1.154 0,0.64 0.384,1.538 0.064,0.256 0.129,0.448 0.128,0.577 0.448,0.577 0.385,0 1.09,-0.321 0.769,-0.384 1.089,-1.473"
         id="path4789"
         inkscape:connector-curvature="0"
         style="fill:#000066" />
      <path
         d="m 64.207,23.698 q -0.897,-0.641 -2.05,-0.641 -2.18,0 -5.064,1.922 -2.884,1.987 -4.486,4.614 -1.667,2.628 -1.667,4.743 0,1.409 0.705,2.178 0.705,0.769 1.987,0.769 1.667,0 3.589,-1.153 1.987,-1.154 3.205,-2.627 0.769,-0.898 0.897,-0.77 -0.128,0.77 -0.192,1.859 -0.449,4.806 -1.602,7.177 -1.218,2.436 -3.461,2.436 -2.564,0 -5.833,-2.179 -1.218,-0.769 -1.474,-0.769 -0.513,0 -0.513,0.64 0,1.09 2.5,2.884 2.564,1.731 5.127,1.731 1.475,0 2.885,-0.769 1.41,-0.834 2.371,-2.436 1.026,-1.602 1.41,-3.332 0.385,-1.73 0.705,-4.934 0.385,-3.525 0.705,-5.063 0.256,-1.474 1.09,-3.781 0.192,-0.385 0.192,-0.577 0,-0.384 -0.256,-0.897 -0.193,-0.577 -0.449,-0.705 -0.128,-0.128 -0.321,-0.32 m -5.832,2.691 q 1.795,-1.217 2.948,-1.217 1.154,0 1.154,1.538 0,1.281 -1.41,3.524 -1.474,2.243 -3.461,3.525 -1.923,1.282 -3.205,1.282 -0.384,0 -0.705,-0.321 -0.384,-0.32 -0.384,-0.833 0,-1.602 1.666,-3.909 1.667,-2.371 3.397,-3.589"
         id="path4791"
         inkscape:connector-curvature="0"
         style="fill:#000066" />
      <path
         d="m 71.77,23.89 q -0.384,-0.32 -1.089,-0.32 -0.577,0 -0.897,0.64 -0.321,0.577 -0.321,1.474 0,0.385 -0.384,2.307 -1.026,5.512 -1.026,8.011 0,2.499 1.346,2.499 0.513,0 0.961,-0.384 0.449,-0.449 0.449,-0.705 0,-0.129 -0.064,-0.385 -0.256,-1.282 -0.256,-2.371 0,-2.115 0.192,-3.717 0.256,-1.538 1.282,-5.191 0.192,-0.705 0.192,-1.089 0,-0.449 -0.385,-0.769"
         id="path4793"
         inkscape:connector-curvature="0"
         style="fill:#000066" />
      <path
         d="m 50.107,17.482 q 0.32,-1.09 0.32,-1.603 0,-0.256 -0.448,-0.576 -0.513,-0.321 -0.897,-0.321 -0.834,0 -1.475,0.577 -0.641,0.577 -0.641,1.154 0,0.64 0.385,1.538 0.064,0.256 0.128,0.448 0.128,0.577 0.449,0.577 0.384,0 1.089,-0.321 0.77,-0.384 1.09,-1.473"
         id="path4795"
         inkscape:connector-curvature="0"
         style="fill:#000066" />
      <path
         d="m 39.596,25.684 q 0.513,0 1.025,0.513 0.449,0.449 1.026,0.449 0.577,0 0.833,-0.321 0.256,-0.32 0.256,-0.769 0,-0.961 -0.769,-1.666 -0.705,-0.769 -1.923,-0.769 -0.576,0 -1.217,0.256 -0.641,0.257 -1.41,0.833 -0.77,0.577 -1.731,1.667 -0.961,1.089 -1.73,2.371 -0.77,1.153 -1.731,3.332 -0.192,0.449 -0.32,0.705 l 0,-0.897 q 0.128,-2.5 0.256,-3.14 0.128,-0.513 0.192,-0.962 0.064,-0.384 0.385,-1.474 0.256,-1.025 0.256,-1.538 0,-0.384 -0.256,-0.704 -0.257,-0.321 -0.769,-0.321 -0.513,0 -0.962,0.385 -0.448,0.32 -0.577,0.769 -0.192,0.384 -0.256,1.474 -0.128,0.961 -0.128,1.217 -0.256,1.602 -0.321,4.166 -0.064,2.243 -0.064,2.883 0,2.371 0.257,3.397 0.32,0.961 1.025,0.961 0.641,0 1.026,-0.32 0.384,-0.321 0.577,-1.41 0.512,-4.166 3.076,-7.626 2.5,-3.461 3.974,-3.461"
         id="path4797"
         inkscape:connector-curvature="0"
         style="fill:#000066" />
      <path
         d="m 45.428,24.21 q -0.32,0.577 -0.32,1.474 0,0.385 -0.385,2.307 -1.025,5.512 -1.025,8.011 0,2.499 1.346,2.499 0.512,0 0.961,-0.384 0.449,-0.449 0.449,-0.705 0,-0.129 -0.064,-0.385 -0.257,-1.282 -0.257,-2.371 0,-2.115 0.193,-3.717 0.256,-1.538 1.281,-5.191 0.193,-0.705 0.193,-1.089 0,-0.449 -0.385,-0.769 -0.384,-0.32 -1.089,-0.32 -0.577,0 -0.898,0.64"
         id="path4799"
         inkscape:connector-curvature="0"
         style="fill:#000066" />
      <path
         d="m 21.714,18.122 q -1.538,-0.576 -3.782,-0.576 -2.948,0 -5.704,2.307 -2.692,2.243 -4.422,5.767 -1.667,3.589 -1.667,6.344 0,2.372 1.731,4.55 1.73,2.179 3.909,2.179 3.269,0 5.448,-1.025 2.115,-1.025 4.487,-3.461 2.435,-2.371 3.525,-4.87 1.154,-2.499 1.154,-4.358 0,-1.986 -0.385,-3.076 -0.449,-1.089 -1.602,-2.179 -1.218,-1.025 -2.692,-1.602 m -9.935,5.64 q 3.077,-4.166 6.153,-4.166 1.731,0 3.205,0.641 1.41,0.705 2.051,1.666 0.641,0.898 0.641,2.564 0,4.293 -3.525,8.074 -3.461,3.845 -7.627,3.845 -1.603,0 -2.82,-1.281 -1.218,-1.346 -1.218,-3.269 0,-3.909 3.14,-8.074"
         id="path4801"
         inkscape:connector-curvature="0"
         style="fill:#000066" />
    </g>
    <g
       id="Symbol_5"
       transform="translate(324.55,213.55)">
      <path
         d="m 572.786,76.439 q -1.346,-1.731 -3.59,-1.731 -3.332,0 -5.704,3.461 -2.371,3.46 -2.371,6.985 0,2.115 1.217,3.525 1.218,1.474 3.077,1.474 3.076,0 5.896,-3.076 2.821,-3.076 2.821,-6.665 0,-2.307 -1.346,-3.973 m -3.846,0.448 q 1.346,0 2.115,1.09 0.769,1.025 0.769,2.755 0,2.756 -2.051,4.999 -2.051,2.243 -4.102,2.243 -0.961,0 -1.538,-0.897 -0.641,-0.898 -0.641,-2.243 0,-2.5 1.602,-5.191 1.603,-2.756 3.846,-2.756"
         id="path4804"
         inkscape:connector-curvature="0"
         style="fill:#000066" />
      <path
         d="m 558.172,66.121 q -0.705,0 -1.346,1.154 -0.641,1.153 -1.73,8.01 -1.154,6.793 -1.154,11.407 0,2.051 0.321,2.948 0.256,0.897 0.961,0.897 0.577,0 1.026,-0.513 0.448,-0.448 0.448,-1.153 0,-0.192 -0.064,-0.641 -0.256,-2.243 -0.256,-4.486 0,-1.858 0.384,-5.062 0.449,-3.205 1.218,-5.896 1.154,-4.23 1.154,-5.383 0,-1.282 -0.962,-1.282"
         id="path4806"
         inkscape:connector-curvature="0"
         style="fill:#000066" />
      <path
         d="m 550.097,80.412 q 0,-2.307 -1.346,-3.973 -1.346,-1.731 -3.59,-1.731 -3.332,0 -5.704,3.461 -2.371,3.46 -2.371,6.985 0,2.115 1.218,3.525 1.217,1.474 3.076,1.474 3.076,0 5.897,-3.076 2.82,-3.076 2.82,-6.665 m -3.077,-2.435 q 0.769,1.025 0.769,2.755 0,2.756 -2.051,4.999 -2.051,2.243 -4.102,2.243 -0.961,0 -1.538,-0.897 -0.641,-0.898 -0.641,-2.243 0,-2.5 1.603,-5.191 1.602,-2.756 3.845,-2.756 1.346,0 2.115,1.09"
         id="path4808"
         inkscape:connector-curvature="0"
         style="fill:#000066" />
      <path
         d="m 522.665,74.452 q -0.321,-0.513 -0.641,-0.513 -0.705,0 -1.282,0.705 -0.513,0.641 -0.513,2.179 l 0.064,1.154 q 0,7.69 -2.563,17.815 -0.321,1.346 -0.321,2.115 0,0.256 0.513,0.705 0.577,0.448 0.961,0.448 0.385,0 0.769,-0.576 0.449,-0.513 0.513,-1.09 l 0.385,-2.563 q 0.641,-4.486 1.282,-6.985 0.512,1.089 1.025,1.474 0.449,0.448 1.218,0.448 3.269,0 6.73,-3.653 3.461,-3.652 3.461,-8.138 0,-1.538 -0.962,-2.628 -0.961,-1.025 -2.371,-1.025 -1.923,0 -4.23,1.987 -2.308,2.05 -4.359,5.639 0,-0.385 0.385,-2.756 0.256,-1.922 0.256,-3.268 0,-0.961 -0.32,-1.474 m 9.165,4.422 q 0,2.82 -2.564,5.703 -2.563,2.884 -4.55,2.884 -0.897,0 -1.41,-0.448 -0.577,-0.449 -0.577,-0.962 0,-1.986 2.82,-5.639 2.884,-3.653 4.807,-3.653 0.641,0 1.025,0.577 0.449,0.513 0.449,1.538"
         id="path4810"
         inkscape:connector-curvature="0"
         style="fill:#000066" />
      <path
         d="m 580.092,75.477 q -2.756,1.859 -2.756,4.55 0,1.09 0.962,1.923 1.025,0.897 3.781,2.307 2.243,1.153 2.243,2.051 -0.448,0.769 -2.179,1.281 -1.73,0.513 -3.269,0.513 -0.192,0 -0.769,-0.192 -0.577,-0.128 -0.769,-0.128 -0.513,0 -1.025,0.256 -0.513,0.256 -0.513,0.769 0,1.538 2.243,1.538 2.628,0 5.576,-1.218 2.884,-1.153 2.884,-3.268 0,-1.153 -0.897,-1.987 -0.961,-0.897 -2.499,-1.602 -1.923,-0.897 -2.692,-1.538 -0.769,-0.641 -0.769,-1.41 0,-1.281 2.115,-2.242 2.115,-1.026 2.82,-1.026 0.128,0 0.577,0.192 0.448,0.193 0.576,0.193 0.193,0 0.577,-0.321 0.385,-0.256 0.385,-0.705 0,-0.961 -0.513,-1.345 -0.513,-0.385 -1.602,-0.385 -1.731,0 -4.487,1.794"
         id="path4812"
         inkscape:connector-curvature="0"
         style="fill:#000066" />
      <path
         d="m 452.163,23.057 q -1.282,0 -1.346,2.755 -0.065,2.756 -0.321,3.589 -0.192,0.833 -0.641,1.474 -0.513,0.641 -1.859,1.666 -1.41,1.09 -2.499,1.538 -1.154,0.449 -1.923,0.449 -0.705,0 -0.897,-0.961 -0.257,-1.026 -0.257,-1.474 0,-1.346 0.513,-2.884 0.513,-1.474 0.513,-1.666 0.064,-0.128 0.769,-1.41 0.32,-0.513 0.32,-0.897 0,-0.577 -0.256,-1.026 -0.192,-0.448 -0.577,-0.448 -0.961,0 -1.346,0.577 -0.448,0.576 -1.282,3.716 -0.897,3.14 -0.897,5.255 0,1.474 0.769,2.628 0.705,1.153 2.051,1.153 1.026,0 2.948,-1.025 1.923,-0.961 4.423,-3.204 -0.064,0.576 -0.064,1.217 -0.192,3.076 -1.538,6.537 -1.346,3.524 -3.333,3.524 -3.846,0 -5.705,-2.755 -0.192,-0.257 -0.32,-0.257 -0.32,0 -0.513,0.449 -0.256,0.385 -0.256,0.833 0,1.026 2.115,2.435 2.115,1.41 4.807,1.41 2.628,0 4.166,-2.563 1.474,-2.564 2.307,-6.409 0.769,-3.845 0.962,-7.626 0.064,-0.704 0.192,-2.435 0.128,-1.345 0.128,-2.243 0,-1.153 -0.192,-1.538 -0.256,-0.384 -0.961,-0.384"
         id="path4814"
         inkscape:connector-curvature="0"
         style="fill:#000066" />
      <path
         d="m 462.802,34.015 q -0.128,-0.192 -0.705,-0.384 -0.641,-0.193 -0.961,-0.193 -0.193,0 -0.321,0.385 -0.192,0.384 -0.192,0.577 0,0.256 0.128,0.512 0.385,0.577 0.385,1.987 0,0.513 -0.705,1.666 -0.706,1.154 -3.269,1.794 -0.128,0.065 -0.128,0.321 0,0.641 0.384,0.641 0.705,0 1.795,-0.449 0.256,-0.128 0.577,-0.192 0.833,-0.128 1.73,-0.769 0.897,-0.705 1.41,-1.923 0.513,-1.217 0.513,-1.474 0,-0.64 -0.256,-1.473 -0.257,-0.898 -0.385,-1.026"
         id="path4816"
         inkscape:connector-curvature="0"
         style="fill:#000066" />
      <path
         d="m 420.372,23.698 q -0.897,-0.641 -2.051,-0.641 -2.179,0 -5.063,1.922 -2.884,1.987 -4.486,4.614 -1.667,2.628 -1.667,4.743 0,1.409 0.705,2.178 0.705,0.769 1.987,0.769 1.666,0 3.589,-1.153 1.987,-1.154 3.205,-2.627 0.769,-0.898 0.897,-0.77 -0.128,0.77 -0.192,1.859 -0.449,4.806 -1.602,7.177 -1.218,2.436 -3.461,2.436 -2.564,0 -5.833,-2.179 -1.218,-0.769 -1.474,-0.769 -0.513,0 -0.513,0.64 0,1.09 2.5,2.884 2.564,1.731 5.127,1.731 1.474,0 2.884,-0.769 1.411,-0.834 2.372,-2.436 1.025,-1.602 1.41,-3.332 0.385,-1.73 0.705,-4.934 0.385,-3.525 0.705,-5.063 0.256,-1.474 1.09,-3.781 0.192,-0.385 0.192,-0.577 0,-0.384 -0.257,-0.897 -0.192,-0.577 -0.448,-0.705 -0.128,-0.128 -0.321,-0.32 m -2.884,1.474 q 1.154,0 1.154,1.538 0,1.281 -1.41,3.524 -1.474,2.243 -3.461,3.525 -1.923,1.282 -3.205,1.282 -0.384,0 -0.705,-0.321 -0.384,-0.32 -0.384,-0.833 0,-1.602 1.666,-3.909 1.666,-2.371 3.397,-3.589 1.795,-1.217 2.948,-1.217"
         id="path4818"
         inkscape:connector-curvature="0"
         style="fill:#000066" />
      <path
         d="m 429.474,24.979 q -2.885,1.987 -4.487,4.614 -1.666,2.628 -1.666,4.743 0,1.409 0.705,2.178 0.705,0.769 1.987,0.769 1.666,0 3.589,-1.153 1.987,-1.154 3.204,-2.627 0.77,-0.898 0.898,-0.77 -0.128,0.77 -0.193,1.859 -0.448,4.806 -1.602,7.177 -1.218,2.436 -3.461,2.436 -2.564,0 -5.832,-2.179 -1.218,-0.769 -1.475,-0.769 -0.512,0 -0.512,0.64 0,1.09 2.499,2.884 2.564,1.731 5.128,1.731 1.474,0 2.884,-0.769 1.41,-0.834 2.371,-2.436 1.026,-1.602 1.41,-3.332 0.385,-1.73 0.706,-4.934 0.384,-3.525 0.705,-5.063 0.256,-1.474 1.089,-3.781 0.192,-0.385 0.192,-0.577 0,-0.384 -0.256,-0.897 -0.192,-0.577 -0.449,-0.705 -0.128,-0.128 -0.32,-0.32 -0.897,-0.641 -2.051,-0.641 -2.179,0 -5.063,1.922 m -2.115,4.999 q 1.666,-2.371 3.396,-3.589 1.795,-1.217 2.949,-1.217 1.153,0 1.153,1.538 0,1.281 -1.41,3.524 -1.474,2.243 -3.461,3.525 -1.922,1.282 -3.204,1.282 -0.385,0 -0.705,-0.321 -0.385,-0.32 -0.385,-0.833 0,-1.602 1.667,-3.909"
         id="path4820"
         inkscape:connector-curvature="0"
         style="fill:#000066" />
      <path
         d="m 466.199,72.658 q 0.513,-1.795 0.513,-1.987 0,-0.32 -0.321,-0.769 -0.32,-0.384 -0.897,-0.384 -0.962,0 -1.346,1.409 -0.321,1.474 -0.705,3.012 -0.449,1.474 -0.641,1.731 -0.256,0.256 -0.513,0.256 l -2.884,0 q -0.769,0 -0.769,0.769 0,1.41 1.73,1.41 l 1.475,-0.128 q 0.32,0 0.32,0.256 0,0.577 -0.705,3.525 -0.705,3.012 -0.705,4.421 0,3.91 3.333,3.91 2.051,0 3.909,-1.603 1.923,-1.538 1.923,-2.563 0,-0.641 -0.577,-0.641 -0.448,0 -1.281,0.769 -2.115,1.731 -3.269,1.731 -0.833,0 -1.218,-0.449 -0.384,-0.513 -0.384,-2.051 0,-0.897 0.705,-4.037 0.705,-3.14 0.833,-3.268 0.128,-0.193 1.794,-0.385 1.667,-0.256 3.718,-0.384 1.538,-0.064 1.538,-1.154 0,-0.512 -0.256,-0.705 -0.321,-0.192 -1.346,-0.192 -0.834,0 -2.051,0.128 -1.282,0.192 -2.692,0.257 l 0.769,-2.884"
         id="path4822"
         inkscape:connector-curvature="0"
         style="fill:#000066" />
      <path
         d="m 456.841,73.17 q 0.257,-0.897 0.257,-1.345 0,-0.962 -1.218,-1.795 -1.282,-0.769 -3.717,-0.769 -3.59,0 -6.858,1.731 -3.269,1.73 -3.269,4.614 0,1.474 1.025,2.819 1.026,1.346 5.448,2.756 3.654,1.153 4.551,1.666 0.833,0.513 0.833,1.09 0,1.345 -2.884,2.883 -2.948,1.474 -5.512,1.474 -1.474,0 -2.948,-0.512 -0.257,-0.129 -0.577,-0.129 -0.257,0 -0.513,0.641 -0.256,0.577 -0.256,0.961 0,0.577 0.897,1.026 0.833,0.384 2.5,0.384 1.986,0 4.871,-0.897 2.884,-0.961 4.871,-2.691 2.051,-1.731 2.051,-3.205 0,-1.538 -1.474,-2.563 -1.475,-1.089 -4.872,-2.051 -3.525,-1.025 -4.614,-1.858 -1.026,-0.897 -1.026,-2.051 0,-1.602 2.372,-2.755 2.371,-1.154 5.255,-1.154 1.474,0 2.372,0.385 0.961,0.448 0.961,2.243 1.154,0 1.474,-0.898"
         id="path4824"
         inkscape:connector-curvature="0"
         style="fill:#000066" />
      <path
         d="m 420.629,79.643 q 0.833,-1.09 1.41,-1.09 0.384,0 0.513,0.769 0.192,0.769 0.384,2.564 0.449,4.486 1.346,5.831 0.833,1.346 1.923,1.346 0.577,0 1.218,-0.512 0.705,-0.513 0.705,-0.962 0,-0.512 -0.834,-0.897 -1.153,-0.513 -1.538,-2.435 -0.448,-1.859 -0.641,-4.166 -0.256,-2.242 -0.769,-3.396 -0.513,-1.153 -1.602,-1.153 -1.346,0 -2.436,1.217 -1.089,1.218 -2.243,3.525 -2.179,4.422 -2.82,4.422 -0.064,0 -0.256,-0.577 -0.193,-0.577 -0.193,-1.666 -0.128,-4.55 -0.641,-5.704 -0.576,-1.217 -1.474,-1.217 -1.153,0 -2.243,1.025 -1.154,1.025 -3.461,4.87 -1.666,2.756 -2.5,3.589 0,-0.705 0.577,-4.166 0.513,-3.011 0.513,-4.037 0,-2.243 -1.538,-2.243 -0.769,0 -0.769,0.962 0,0.897 -0.385,3.011 -0.897,5.319 -0.897,7.37 0,3.589 0.961,3.589 0.385,0 1.026,-0.192 0.64,-0.193 0.833,-0.385 0.256,-0.256 1.666,-2.82 4.23,-7.562 5.512,-7.562 0.513,0.705 0.769,5.063 0.128,2.628 0.257,3.268 0.128,0.705 0.577,1.154 0.448,0.513 1.025,0.513 0.705,0 1.41,-0.898 0.705,-0.897 2.051,-3.524 1.795,-3.333 2.564,-4.486"
         id="path4826"
         inkscape:connector-curvature="0"
         style="fill:#000066" />
      <path
         d="m 512.987,76.695 q -0.513,-1.153 -1.603,-1.153 -1.345,0 -2.435,1.217 -1.09,1.218 -2.243,3.525 -2.179,4.422 -2.82,4.422 -0.065,0 -0.257,-0.577 -0.192,-0.577 -0.192,-1.666 -0.128,-4.55 -0.641,-5.704 -0.577,-1.217 -1.474,-1.217 -1.154,0 -2.243,1.025 -1.154,1.025 -3.461,4.87 -1.667,2.756 -2.5,3.589 0,-0.705 0.577,-4.166 0.513,-3.011 0.513,-4.037 0,-2.243 -1.539,-2.243 -0.769,0 -0.769,0.962 0,0.897 -0.384,3.011 -0.898,5.319 -0.898,7.37 0,3.589 0.962,3.589 0.384,0 1.025,-0.192 0.641,-0.193 0.833,-0.385 0.257,-0.256 1.667,-2.82 4.23,-7.562 5.512,-7.562 0.513,0.705 0.769,5.063 0.128,2.628 0.256,3.268 0.129,0.705 0.577,1.154 0.449,0.513 1.026,0.513 0.705,0 1.41,-0.898 0.705,-0.897 2.051,-3.524 1.794,-3.333 2.563,-4.486 0.834,-1.09 1.41,-1.09 0.385,0 0.513,0.769 0.192,0.769 0.385,2.564 0.448,4.486 1.346,5.831 0.833,1.346 1.922,1.346 0.577,0 1.218,-0.512 0.705,-0.513 0.705,-0.962 0,-0.512 -0.833,-0.897 -1.154,-0.513 -1.538,-2.435 -0.449,-1.859 -0.641,-4.166 -0.256,-2.242 -0.769,-3.396"
         id="path4828"
         inkscape:connector-curvature="0"
         style="fill:#000066" />
      <path
         d="m 485.683,78.297 q 0.257,-0.833 0.257,-0.961 0,-1.282 -0.962,-1.282 -0.577,0 -0.961,0.513 -0.385,0.448 -0.962,2.115 -1.474,4.037 -3.525,6.344 -2.051,2.243 -3.397,2.243 -1.025,0 -1.025,-2.243 0,-2.499 1.282,-5.96 0.641,-1.73 0.641,-2.755 0,-0.385 -0.321,-0.834 -0.384,-0.384 -0.961,-0.384 -0.833,0 -1.218,0.833 0,1.154 -0.769,4.101 -0.833,3.525 -0.833,5.319 0,2.179 0.961,3.269 0.897,1.025 1.795,1.025 1.602,0 3.461,-1.602 1.858,-1.602 3.589,-4.55 0,0.192 0,0.449 l 0,0.448 q 0,2.756 0.577,4.23 0.641,1.409 1.602,1.409 0.449,0 0.961,-0.32 0.577,-0.32 0.577,-0.705 0,-0.32 -0.577,-0.833 -1.025,-0.961 -1.025,-4.165 0,-2.692 0.833,-5.704"
         id="path4830"
         inkscape:connector-curvature="0"
         style="fill:#000066" />
      <path
         d="m 406.272,17.482 q 0.32,-1.09 0.32,-1.603 0,-0.256 -0.448,-0.576 -0.513,-0.321 -0.898,-0.321 -0.833,0 -1.474,0.577 -0.641,0.577 -0.641,1.154 0,0.64 0.385,1.538 0.064,0.256 0.128,0.448 0.128,0.577 0.449,0.577 0.384,0 1.089,-0.321 0.769,-0.384 1.09,-1.473"
         id="path4832"
         inkscape:connector-curvature="0"
         style="fill:#000066" />
      <path
         d="m 403.772,25.748 q 0.193,-0.705 0.193,-1.089 0,-0.449 -0.385,-0.769 -0.385,-0.32 -1.09,-0.32 -0.576,0 -0.897,0.64 -0.32,0.577 -0.32,1.474 0,0.385 -0.385,2.307 -1.025,5.512 -1.025,8.011 0,2.499 1.346,2.499 0.512,0 0.961,-0.384 0.449,-0.449 0.449,-0.705 0,-0.129 -0.064,-0.385 -0.257,-1.282 -0.257,-2.371 0,-2.115 0.192,-3.717 0.257,-1.538 1.282,-5.191"
         id="path4834"
         inkscape:connector-curvature="0"
         style="fill:#000066" />
      <path
         d="m 394.415,23.634 q -0.385,0.064 -0.705,0.128 -0.321,0 -0.577,0.064 -2.307,0.32 -4.166,0.32 -1.41,0 -2.436,-0.448 -0.192,-0.064 -0.256,-0.064 -1.218,0 -1.218,1.153 0,1.474 2.82,1.474 1.154,0 2.243,-0.192 2.372,-0.321 3.077,-0.321 0.385,0 0.449,0.129 -3.269,4.165 -9.422,10.445 -1.154,1.154 -1.795,1.923 0,0.384 0.513,0.641 0.577,0.256 0.961,0.256 0.77,0 1.475,-0.641 1.025,-0.961 3.845,-1.41 2.756,-0.448 3.974,-0.448 2.051,0 3.269,0.576 0.32,0.193 0.705,0.385 0.512,-0.577 0.512,-1.538 0,-1.602 -2.627,-1.602 -1.667,0 -4.936,0.705 -1.73,0.32 -1.922,0.32 -0.193,0 -0.257,-0.128 0.129,-0.32 1.795,-2.115 6.986,-7.434 7.307,-8.651 l 0,-0.064 q 0.064,-0.513 -0.385,-0.769 -0.513,-0.257 -0.961,-0.257 -0.513,0 -1.282,0.129"
         id="path4836"
         inkscape:connector-curvature="0"
         style="fill:#000066" />
      <path
         d="m 372.815,26.133 q 0.321,-0.513 0.321,-0.897 0,-0.577 -0.257,-1.026 -0.192,-0.448 -0.576,-0.448 -0.962,0 -1.346,0.577 -0.449,0.576 -1.282,3.716 -0.897,3.14 -0.897,5.255 0,1.474 0.769,2.628 0.705,1.153 2.051,1.153 1.025,0 2.948,-1.025 1.923,-0.961 4.422,-3.204 -0.064,0.576 -0.064,1.217 -0.192,3.076 -1.538,6.537 -1.346,3.524 -3.333,3.524 -3.845,0 -5.704,-2.755 -0.192,-0.257 -0.321,-0.257 -0.32,0 -0.512,0.449 -0.257,0.385 -0.257,0.833 0,1.026 2.115,2.435 2.115,1.41 4.807,1.41 2.628,0 4.166,-2.563 1.475,-2.564 2.308,-6.409 0.769,-3.845 0.961,-7.626 0.064,-0.704 0.192,-2.435 0.129,-1.345 0.129,-2.243 0,-1.153 -0.193,-1.538 -0.256,-0.384 -0.961,-0.384 -1.282,0 -1.346,2.755 -0.064,2.756 -0.321,3.589 -0.192,0.833 -0.64,1.474 -0.513,0.641 -1.859,1.666 -1.41,1.09 -2.5,1.538 -1.153,0.449 -1.923,0.449 -0.705,0 -0.897,-0.961 -0.256,-1.026 -0.256,-1.474 0,-1.346 0.513,-2.884 0.512,-1.474 0.512,-1.666 0.064,-0.128 0.769,-1.41"
         id="path4838"
         inkscape:connector-curvature="0"
         style="fill:#000066" />
      <path
         d="m 348.332,17.353 q -2.692,0 -6.345,0.898 -3.654,0.833 -3.654,1.73 0,1.153 0.769,1.41 0.257,0.256 0.257,1.217 0,1.026 0,1.218 l -1.026,8.138 q -0.448,4.102 -0.448,4.999 0,1.666 1.217,1.666 0.513,0 0.898,-0.512 0.384,-0.513 0.384,-1.154 0,-0.833 0.128,-3.076 0.065,-2.307 0.257,-2.499 0.192,-0.193 1.666,-0.513 5.705,-1.089 9.101,-3.525 3.333,-2.371 3.333,-5.447 0,-2.05 -1.794,-3.268 -1.731,-1.282 -4.743,-1.282 m 4.23,4.871 q 0,2.243 -3.525,4.165 -3.525,1.923 -8.012,2.564 0.128,-1.41 0.257,-2.628 0.32,-2.307 0.512,-4.229 0.064,-1.09 0.193,-1.474 3.397,-1.218 6.217,-1.218 4.358,0 4.358,2.82"
         id="path4840"
         inkscape:connector-curvature="0"
         style="fill:#000066" />
      <path
         d="m 361.215,25.364 q 2.115,-1.025 2.82,-1.025 0.128,0 0.576,0.192 0.449,0.192 0.577,0.192 0.193,0 0.577,-0.32 0.385,-0.257 0.385,-0.705 0,-0.962 -0.513,-1.346 -0.513,-0.385 -1.602,-0.385 -1.731,0 -4.487,1.795 -2.756,1.858 -2.756,4.55 0,1.089 0.962,1.922 1.025,0.897 3.781,2.307 2.243,1.154 2.243,2.051 -0.448,0.769 -2.179,1.282 -1.73,0.512 -3.269,0.512 -0.192,0 -0.769,-0.192 -0.577,-0.128 -0.769,-0.128 -0.513,0 -1.025,0.256 -0.513,0.257 -0.513,0.769 0,1.538 2.243,1.538 2.628,0 5.576,-1.217 2.884,-1.154 2.884,-3.269 0,-1.153 -0.897,-1.986 -0.961,-0.897 -2.5,-1.602 -1.922,-0.898 -2.691,-1.538 -0.77,-0.641 -0.77,-1.41 0,-1.282 2.116,-2.243"
         id="path4842"
         inkscape:connector-curvature="0"
         style="fill:#000066" />
      <path
         d="m 321.861,23.441 q -0.256,-0.384 -0.961,-0.384 -1.282,0 -1.346,2.755 -0.064,2.756 -0.32,3.589 -0.193,0.833 -0.641,1.474 -0.513,0.641 -1.859,1.666 -1.41,1.09 -2.5,1.538 -1.153,0.449 -1.922,0.449 -0.705,0 -0.898,-0.961 -0.256,-1.026 -0.256,-1.474 0,-1.346 0.513,-2.884 0.512,-1.474 0.512,-1.666 0.064,-0.128 0.769,-1.41 0.321,-0.513 0.321,-0.897 0,-0.577 -0.256,-1.026 -0.193,-0.448 -0.577,-0.448 -0.962,0 -1.346,0.577 -0.449,0.576 -1.282,3.716 -0.897,3.14 -0.897,5.255 0,1.474 0.769,2.628 0.705,1.153 2.051,1.153 1.025,0 2.948,-1.025 1.923,-0.961 4.422,-3.204 -0.064,0.576 -0.064,1.217 -0.192,3.076 -1.538,6.537 -1.346,3.524 -3.333,3.524 -3.845,0 -5.704,-2.755 -0.192,-0.257 -0.32,-0.257 -0.321,0 -0.513,0.449 -0.257,0.385 -0.257,0.833 0,1.026 2.115,2.435 2.116,1.41 4.807,1.41 2.628,0 4.166,-2.563 1.475,-2.564 2.308,-6.409 0.769,-3.845 0.961,-7.626 0.064,-0.704 0.193,-2.435 0.128,-1.345 0.128,-2.243 0,-1.153 -0.193,-1.538"
         id="path4844"
         inkscape:connector-curvature="0"
         style="fill:#000066" />
      <path
         d="m 365.316,76.246 q -0.833,0 -0.833,-0.64 0,-1.987 1.09,-5.127 1.025,-3.14 2.628,-3.14 1.474,0 1.474,2.627 l -0.064,1.346 q 0,0.449 0.448,0.449 0.577,0 1.09,-1.282 0.449,-1.282 0.449,-2.243 0,-1.282 -0.834,-2.115 -0.833,-0.833 -2.051,-0.833 -2.371,0 -3.845,1.923 -1.474,1.858 -2.179,6.152 -0.193,1.153 -0.385,1.794 -0.128,0.705 -0.833,1.218 -0.897,0.705 -0.897,1.281 0,0.385 0.576,0.769 0.577,0.385 0.577,0.641 0,1.474 -0.384,4.23 -0.641,4.55 -0.641,5.575 0,2.051 1.41,2.051 0.448,0 0.833,-0.257 0.449,-0.256 0.513,-0.576 0,-0.129 -0.064,-0.705 -0.128,-0.577 -0.128,-1.731 0,-4.037 0.961,-9.164 0.256,-0.128 2.243,-0.32 2.308,-0.256 3.013,-0.513 0.705,-0.32 0.705,-0.897 0,-0.577 -0.641,-0.513 -0.641,0 -4.231,0"
         id="path4846"
         inkscape:connector-curvature="0"
         style="fill:#000066" />
      <path
         d="m 341.923,69.518 q -0.962,0 -1.346,1.409 -0.321,1.474 -0.705,3.012 -0.449,1.474 -0.641,1.731 -0.257,0.256 -0.513,0.256 l -2.884,0 q -0.769,0 -0.769,0.769 0,1.41 1.73,1.41 l 1.474,-0.128 q 0.321,0 0.321,0.256 0,0.577 -0.705,3.525 -0.705,3.012 -0.705,4.421 0,3.91 3.332,3.91 2.051,0 3.91,-1.603 1.923,-1.538 1.923,-2.563 0,-0.641 -0.577,-0.641 -0.449,0 -1.282,0.769 -2.115,1.731 -3.268,1.731 -0.834,0 -1.218,-0.449 -0.385,-0.513 -0.385,-2.051 0,-0.897 0.705,-4.037 0.705,-3.14 0.833,-3.268 0.129,-0.193 1.795,-0.385 1.666,-0.256 3.717,-0.384 1.539,-0.064 1.539,-1.154 0,-0.512 -0.257,-0.705 -0.32,-0.192 -1.346,-0.192 -0.833,0 -2.051,0.128 -1.282,0.192 -2.692,0.257 l 0.77,-2.884 q 0.512,-1.795 0.512,-1.987 0,-0.32 -0.32,-0.769 -0.321,-0.384 -0.897,-0.384"
         id="path4848"
         inkscape:connector-curvature="0"
         style="fill:#000066" />
      <path
         d="m 332.629,76.439 q 0.192,0 0.577,-0.321 0.384,-0.256 0.384,-0.705 0,-0.961 -0.512,-1.345 -0.513,-0.385 -1.603,-0.385 -1.73,0 -4.486,1.794 -2.756,1.859 -2.756,4.55 0,1.09 0.961,1.923 1.026,0.897 3.782,2.307 2.243,1.153 2.243,2.051 -0.449,0.769 -2.179,1.281 -1.731,0.513 -3.269,0.513 -0.192,0 -0.769,-0.192 -0.577,-0.128 -0.769,-0.128 -0.513,0 -1.026,0.256 -0.512,0.256 -0.512,0.769 0,1.538 2.243,1.538 2.628,0 5.576,-1.218 2.884,-1.153 2.884,-3.268 0,-1.153 -0.897,-1.987 -0.962,-0.897 -2.5,-1.602 -1.923,-0.897 -2.692,-1.538 -0.769,-0.641 -0.769,-1.41 0,-1.281 2.115,-2.242 2.115,-1.026 2.82,-1.026 0.129,0 0.577,0.192 0.449,0.193 0.577,0.193"
         id="path4850"
         inkscape:connector-curvature="0"
         style="fill:#000066" />
      <path
         d="m 317.888,80.54 q 2.051,-1.987 2.051,-4.101 0,-0.962 -0.641,-1.602 -0.641,-0.705 -1.667,-0.705 -3.204,0 -5.832,3.588 -2.692,3.525 -2.692,7.498 0,2.307 1.218,3.653 1.217,1.282 3.461,1.282 2.628,0 5.127,-1.987 2.436,-1.987 2.436,-3.396 0,-0.705 -0.385,-0.705 -0.256,0 -0.705,0.448 -3.076,3.269 -6.025,3.269 -1.346,0 -1.987,-0.641 -0.64,-0.705 -0.64,-1.859 0,-0.576 0.705,-0.961 3.461,-1.858 5.576,-3.781 m -0.962,-4.294 q 0.705,0 0.705,0.834 0,2.114 -5.832,5.575 0.641,-2.692 2.243,-4.55 1.602,-1.859 2.884,-1.859"
         id="path4852"
         inkscape:connector-curvature="0"
         style="fill:#000066" />
      <path
         d="m 396.978,76.439 q -1.346,-1.731 -3.589,-1.731 -3.333,0 -5.704,3.461 -2.371,3.46 -2.371,6.985 0,2.115 1.217,3.525 1.218,1.474 3.077,1.474 3.076,0 5.896,-3.076 2.82,-3.076 2.82,-6.665 0,-2.307 -1.346,-3.973 m -1.73,1.538 q 0.769,1.025 0.769,2.755 0,2.756 -2.051,4.999 -2.051,2.243 -4.102,2.243 -0.961,0 -1.538,-0.897 -0.641,-0.898 -0.641,-2.243 0,-2.5 1.602,-5.191 1.603,-2.756 3.846,-2.756 1.346,0 2.115,1.09"
         id="path4854"
         inkscape:connector-curvature="0"
         style="fill:#000066" />
      <path
         d="m 381.724,77.4 q 0.513,0 1.026,0.513 0.448,0.448 1.025,0.448 0.577,0 0.833,-0.32 0.257,-0.321 0.257,-0.769 0,-0.961 -0.769,-1.666 -0.705,-0.769 -1.923,-0.769 -0.577,0 -1.218,0.256 -0.641,0.256 -1.41,0.833 -0.769,0.577 -1.73,1.666 -0.962,1.09 -1.731,2.371 -0.769,1.154 -1.73,3.333 -0.193,0.448 -0.321,0.705 l 0,-0.898 q 0.128,-2.499 0.257,-3.14 0.128,-0.512 0.192,-0.961 0.064,-0.384 0.384,-1.474 0.257,-1.025 0.257,-1.538 0,-0.384 -0.257,-0.705 -0.256,-0.32 -0.769,-0.32 -0.513,0 -0.961,0.384 -0.449,0.321 -0.577,0.769 -0.192,0.385 -0.256,1.474 -0.129,0.961 -0.129,1.218 -0.256,1.602 -0.32,4.165 -0.064,2.243 -0.064,2.884 0,2.371 0.256,3.396 0.321,0.962 1.026,0.962 0.641,0 1.025,-0.321 0.385,-0.32 0.577,-1.41 0.513,-4.165 3.077,-7.626 2.499,-3.46 3.973,-3.46"
         id="path4856"
         inkscape:connector-curvature="0"
         style="fill:#000066" />
      <path
         d="m 296.481,13.829 q -0.385,0.32 -0.705,1.346 -0.385,0.961 -1.09,5.126 l -1.41,8.203 q -0.705,4.101 -0.705,5.383 0,0.641 0.577,1.218 0.32,0.32 0.384,0.961 0.128,0.833 0.898,1.346 0.833,0.512 1.794,0.512 3.589,0 6.858,-3.717 3.205,-3.781 3.205,-8.01 0,-1.474 -0.769,-2.499 -0.705,-0.962 -1.795,-0.962 -1.987,0 -4.422,1.987 -2.5,1.987 -4.23,5.191 1.345,-7.562 2.371,-10.318 1.025,-2.819 1.025,-4.421 0,-1.667 -0.961,-1.667 -0.577,0 -1.025,0.321 m 7.37,11.791 q 0.257,0.513 0.257,1.218 0,1.666 -1.282,4.037 -1.282,2.371 -3.013,3.653 -1.794,1.282 -3.332,1.282 -1.026,0 -1.731,-1.346 0.961,-3.076 3.717,-6.216 2.756,-3.14 4.679,-3.14 0.385,0 0.705,0.512"
         id="path4858"
         inkscape:connector-curvature="0"
         style="fill:#000066" />
      <path
         d="m 278.022,16.008 q 0,-1.731 -0.962,-1.731 -0.32,0 -0.897,0.321 -0.577,0.32 -0.769,1.281 l -1.923,8.972 q -1.218,-1.217 -2.628,-1.217 -3.332,0 -6.153,3.652 -2.82,3.653 -2.82,7.178 0,1.666 0.769,2.691 0.77,1.026 2.116,1.026 1.73,0 3.845,-1.602 2.051,-1.603 3.91,-4.55 -0.064,0.769 -0.064,1.474 0,4.421 2.243,4.421 1.282,0 2.564,-0.961 1.217,-0.897 1.217,-1.602 0,-0.577 -0.448,-0.577 -0.321,0 -0.641,0.257 -0.833,0.512 -1.602,0.512 -1.218,0 -1.218,-2.755 0,-2.692 0.897,-7.114 0.897,-4.422 1.923,-7.433 0.641,-1.923 0.641,-2.243 m -7.371,9.612 q 0.833,0 1.41,0.641 0.577,0.577 0.577,1.218 0,1.217 -1.666,3.716 -1.603,2.436 -3.141,3.589 -1.538,1.154 -2.628,1.154 -1.153,0 -1.153,-1.731 0,-2.563 2.243,-5.575 2.179,-3.012 4.358,-3.012"
         id="path4860"
         inkscape:connector-curvature="0"
         style="fill:#000066" />
      <path
         d="m 243.924,24.723 q 0,-0.961 -0.641,-1.602 -0.641,-0.705 -1.666,-0.705 -3.205,0 -5.833,3.589 -2.691,3.524 -2.691,7.498 0,2.307 1.217,3.652 1.218,1.282 3.461,1.282 2.628,0 5.128,-1.987 2.435,-1.986 2.435,-3.396 0,-0.705 -0.384,-0.705 -0.257,0 -0.705,0.449 -3.077,3.268 -6.025,3.268 -1.346,0 -1.987,-0.641 -0.641,-0.705 -0.641,-1.858 0,-0.577 0.705,-0.962 3.461,-1.858 5.576,-3.781 2.051,-1.986 2.051,-4.101 m -2.307,0.641 q 0,2.115 -5.833,5.575 0.641,-2.691 2.244,-4.55 1.602,-1.858 2.884,-1.858 0.705,0 0.705,0.833"
         id="path4862"
         inkscape:connector-curvature="0"
         style="fill:#000066" />
      <path
         d="m 248.859,31.26 q -0.064,2.243 -0.064,2.883 0,2.371 0.257,3.397 0.32,0.961 1.025,0.961 0.641,0 1.026,-0.32 0.384,-0.321 0.577,-1.41 0.512,-4.166 3.076,-7.626 2.5,-3.461 3.974,-3.461 0.513,0 1.025,0.513 0.449,0.449 1.026,0.449 0.577,0 0.833,-0.321 0.256,-0.32 0.256,-0.769 0,-0.961 -0.769,-1.666 -0.705,-0.769 -1.923,-0.769 -0.576,0 -1.217,0.256 -0.641,0.257 -1.41,0.833 -0.769,0.577 -1.731,1.667 -0.961,1.089 -1.73,2.371 -0.77,1.153 -1.731,3.332 -0.192,0.449 -0.32,0.705 l 0,-0.897 q 0.128,-2.5 0.256,-3.14 0.128,-0.513 0.192,-0.962 0.064,-0.384 0.385,-1.474 0.256,-1.025 0.256,-1.538 0,-0.384 -0.256,-0.704 -0.257,-0.321 -0.769,-0.321 -0.513,0 -0.962,0.385 -0.448,0.32 -0.577,0.769 -0.192,0.384 -0.256,1.474 -0.128,0.961 -0.128,1.217 -0.256,1.602 -0.321,4.166"
         id="path4864"
         inkscape:connector-curvature="0"
         style="fill:#000066" />
      <path
         d="m 226.94,18.186 q -0.321,-0.384 -0.898,-0.384 -0.961,0 -1.346,1.41 -0.32,1.474 -0.705,3.012 -0.448,1.474 -0.641,1.73 -0.256,0.256 -0.512,0.256 l -2.884,0 q -0.77,0 -0.77,0.769 0,1.41 1.731,1.41 l 1.474,-0.128 q 0.321,0 0.321,0.256 0,0.577 -0.706,3.525 -0.705,3.012 -0.705,4.422 0,3.909 3.333,3.909 2.051,0 3.91,-1.602 1.923,-1.538 1.923,-2.564 0,-0.64 -0.577,-0.64 -0.449,0 -1.282,0.769 -2.115,1.73 -3.269,1.73 -0.833,0 -1.217,-0.449 -0.385,-0.512 -0.385,-2.05 0,-0.898 0.705,-4.038 0.705,-3.14 0.833,-3.268 0.128,-0.192 1.795,-0.384 1.666,-0.257 3.717,-0.385 1.538,-0.064 1.538,-1.153 0,-0.513 -0.256,-0.705 -0.32,-0.193 -1.346,-0.193 -0.833,0 -2.051,0.129 -1.282,0.192 -2.692,0.256 l 0.769,-2.884 q 0.513,-1.794 0.513,-1.987 0,-0.32 -0.32,-0.769"
         id="path4866"
         inkscape:connector-curvature="0"
         style="fill:#000066" />
      <path
         d="m 217.71,23.698 q 0,-0.962 -0.512,-1.346 -0.513,-0.385 -1.603,-0.385 -1.73,0 -4.486,1.795 -2.756,1.858 -2.756,4.55 0,1.089 0.961,1.922 1.026,0.897 3.782,2.307 2.243,1.154 2.243,2.051 -0.449,0.769 -2.179,1.282 -1.731,0.512 -3.269,0.512 -0.192,0 -0.769,-0.192 -0.577,-0.128 -0.769,-0.128 -0.513,0 -1.026,0.256 -0.513,0.257 -0.513,0.769 0,1.538 2.244,1.538 2.628,0 5.576,-1.217 2.884,-1.154 2.884,-3.269 0,-1.153 -0.897,-1.986 -0.962,-0.897 -2.5,-1.602 -1.923,-0.898 -2.692,-1.538 -0.769,-0.641 -0.769,-1.41 0,-1.282 2.115,-2.243 2.115,-1.025 2.82,-1.025 0.128,0 0.577,0.192 0.449,0.192 0.577,0.192 0.192,0 0.577,-0.32 0.384,-0.257 0.384,-0.705"
         id="path4868"
         inkscape:connector-curvature="0"
         style="fill:#000066" />
      <path
         d="m 250.846,77.528 q 0.257,-1.025 0.257,-1.538 0,-0.384 -0.257,-0.705 -0.256,-0.32 -0.769,-0.32 -0.513,0 -0.961,0.384 -0.449,0.321 -0.577,0.769 -0.192,0.385 -0.256,1.474 -0.129,0.961 -0.129,1.218 -0.256,1.602 -0.32,4.165 -0.064,2.243 -0.064,2.884 0,2.371 0.256,3.396 0.321,0.962 1.026,0.962 0.641,0 1.025,-0.321 0.385,-0.32 0.577,-1.41 0.513,-4.165 3.077,-7.626 2.499,-3.46 3.973,-3.46 0.513,0 1.026,0.513 0.448,0.448 1.025,0.448 0.577,0 0.833,-0.32 0.257,-0.321 0.257,-0.769 0,-0.961 -0.769,-1.666 -0.705,-0.769 -1.923,-0.769 -0.577,0 -1.218,0.256 -0.641,0.256 -1.41,0.833 -0.769,0.577 -1.73,1.666 -0.962,1.09 -1.731,2.371 -0.769,1.154 -1.73,3.333 -0.193,0.448 -0.321,0.705 l 0,-0.898 q 0.128,-2.499 0.257,-3.14 0.128,-0.512 0.192,-0.961 0.064,-0.384 0.384,-1.474"
         id="path4870"
         inkscape:connector-curvature="0"
         style="fill:#000066" />
      <path
         d="m 244.565,68.236 q -0.384,-0.513 -0.641,-0.513 -0.512,0 -1.602,1.474 -1.09,1.474 -1.795,2.499 -1.41,2.372 -3.204,4.999 -1.731,2.499 -2.628,3.909 -0.064,0.128 -0.192,0.321 -1.218,1.602 -2.692,3.909 -1.474,2.243 -2.179,3.652 -0.641,1.474 -0.641,1.667 0,0.384 0.32,0.769 0.385,0.32 0.705,0.32 0.256,0 1.154,-1.346 0.961,-1.345 1.218,-2.05 0.32,-0.769 1.666,-2.756 0.833,-1.218 1.282,-1.858 3.717,-5.576 7.819,-11.087 1.859,-2.563 1.859,-3.14 0,-0.256 -0.449,-0.769"
         id="path4872"
         inkscape:connector-curvature="0"
         style="fill:#000066" />
      <path
         d="m 225.401,81.437 q -0.384,-3.012 -1.153,-4.101 -0.769,-1.154 -2.051,-1.154 -1.538,0 -2.82,1.346 -1.282,1.41 -3.013,4.742 -1.73,3.269 -1.922,3.269 -0.129,0 -0.129,-0.193 0,-0.384 0.321,-1.858 0.833,-4.294 0.833,-5.704 0,-1.345 -0.32,-1.794 -0.321,-0.448 -1.026,-0.448 -0.385,0 -0.833,0.704 -0.449,0.577 -0.449,1.154 0,4.614 -0.769,8.715 -0.256,1.218 -0.256,1.923 0,1.538 1.666,1.538 0.449,0 1.09,-0.577 0.705,-0.641 2.948,-4.998 1.73,-3.269 2.628,-4.23 0.833,-0.897 1.538,-0.897 1.218,0 1.602,4.037 0.385,4.037 1.026,4.999 0.641,0.897 1.794,0.897 1.154,0 1.987,-0.705 0.769,-0.641 0.769,-1.282 0,-0.705 -0.576,-0.705 -0.064,0 -0.129,0.064 -0.641,0.321 -1.089,0.321 -0.705,0 -0.962,-0.833 -0.32,-0.833 -0.705,-4.23"
         id="path4874"
         inkscape:connector-curvature="0"
         style="fill:#000066" />
      <path
         d="m 305.069,78.297 q 0.256,-0.833 0.256,-0.961 0,-1.282 -0.961,-1.282 -0.577,0 -0.961,0.513 -0.385,0.448 -0.962,2.115 -1.474,4.037 -3.525,6.344 -2.051,2.243 -3.397,2.243 -1.025,0 -1.025,-2.243 0,-2.499 1.282,-5.96 0.64,-1.73 0.64,-2.755 0,-0.385 -0.32,-0.834 -0.385,-0.384 -0.961,-0.384 -0.834,0 -1.218,0.833 0,1.154 -0.769,4.101 -0.833,3.525 -0.833,5.319 0,2.179 0.961,3.269 0.897,1.025 1.795,1.025 1.602,0 3.461,-1.602 1.858,-1.602 3.589,-4.55 0,0.192 0,0.449 l 0,0.448 q 0,2.756 0.577,4.23 0.641,1.409 1.602,1.409 0.449,0 0.961,-0.32 0.577,-0.32 0.577,-0.705 0,-0.32 -0.577,-0.833 -1.025,-0.961 -1.025,-4.165 0,-2.692 0.833,-5.704"
         id="path4876"
         inkscape:connector-curvature="0"
         style="fill:#000066" />
      <path
         d="m 289.43,77.208 q 0,-1.09 -1.282,-1.346 -0.384,-0.128 -0.512,-0.513 -0.385,-1.538 -1.667,-1.538 -3.525,0 -6.922,4.102 -3.461,4.101 -3.461,7.882 0,1.602 0.769,2.691 0.769,1.09 1.987,1.09 1.603,0 3.333,-1.09 1.795,-1.089 3.717,-3.204 0.257,-0.32 0.321,-0.32 -0.192,1.217 -0.769,3.973 -0.513,2.243 -0.962,4.742 -0.448,2.5 -0.448,2.884 0,0.705 0.384,1.154 0.321,0.448 0.898,0.448 0.576,0 1.025,-0.32 0.449,-0.385 0.449,-0.897 0.064,-0.577 0.128,-2.179 0.064,-2.436 1.025,-7.37 0.898,-4.999 1.346,-6.793 0.641,-2.563 0.641,-3.396 m -4.294,-0.962 q 1.667,0 1.667,2.115 0,2.692 -2.885,5.832 -2.884,3.076 -4.935,3.076 -1.153,0 -1.153,-1.73 0,-2.756 2.691,-6.024 2.628,-3.269 4.615,-3.269"
         id="path4878"
         inkscape:connector-curvature="0"
         style="fill:#000066" />
      <path
         d="m 271.933,76.439 q 0,-0.962 -0.641,-1.602 -0.641,-0.705 -1.666,-0.705 -3.205,0 -5.833,3.588 -2.692,3.525 -2.692,7.498 0,2.307 1.218,3.653 1.218,1.282 3.461,1.282 2.628,0 5.127,-1.987 2.436,-1.987 2.436,-3.396 0,-0.705 -0.385,-0.705 -0.256,0 -0.705,0.448 -3.076,3.269 -6.024,3.269 -1.346,0 -1.987,-0.641 -0.641,-0.705 -0.641,-1.859 0,-0.576 0.705,-0.961 3.461,-1.858 5.576,-3.781 2.051,-1.987 2.051,-4.101 m -3.012,-0.193 q 0.705,0 0.705,0.834 0,2.114 -5.833,5.575 0.641,-2.692 2.243,-4.55 1.603,-1.859 2.885,-1.859"
         id="path4880"
         inkscape:connector-curvature="0"
         style="fill:#000066" />
      <path
         d="m 186.433,28.376 q -0.257,-2.243 -0.769,-3.397 -0.513,-1.153 -1.603,-1.153 -1.346,0 -2.435,1.217 -1.09,1.218 -2.243,3.525 -2.18,4.422 -2.82,4.422 -0.065,0 -0.257,-0.577 -0.192,-0.577 -0.192,-1.666 -0.128,-4.55 -0.641,-5.704 -0.577,-1.217 -1.474,-1.217 -1.154,0 -2.243,1.025 -1.154,1.026 -3.461,4.871 -1.667,2.755 -2.5,3.588 0,-0.705 0.577,-4.165 0.512,-3.012 0.512,-4.037 0,-2.243 -1.538,-2.243 -0.769,0 -0.769,0.961 0,0.897 -0.384,3.012 -0.898,5.319 -0.898,7.369 0,3.589 0.962,3.589 0.384,0 1.025,-0.192 0.641,-0.192 0.833,-0.385 0.257,-0.256 1.667,-2.819 4.23,-7.562 5.512,-7.562 0.513,0.705 0.769,5.062 0.128,2.628 0.256,3.269 0.128,0.705 0.577,1.153 0.449,0.513 1.026,0.513 0.705,0 1.41,-0.897 0.705,-0.897 2.051,-3.525 1.794,-3.332 2.563,-4.486 0.834,-1.089 1.41,-1.089 0.385,0 0.513,0.769 0.192,0.769 0.385,2.563 0.448,4.486 1.346,5.832 0.833,1.346 1.922,1.346 0.577,0 1.218,-0.513 0.705,-0.513 0.705,-0.961 0,-0.513 -0.833,-0.898 -1.154,-0.512 -1.538,-2.435 -0.449,-1.858 -0.641,-4.165"
         id="path4882"
         inkscape:connector-curvature="0"
         style="fill:#000066" />
      <path
         d="m 203.418,32.221 q 0,-1.666 0.769,-5.704 0.128,-0.769 0.128,-1.153 0,-0.897 -1.09,-0.897 -0.384,0 -0.577,-0.449 -0.576,-1.282 -1.73,-1.282 -3.205,0 -6.409,4.166 -3.269,4.165 -3.269,7.818 0,1.41 0.769,2.307 0.769,0.897 1.859,0.897 1.538,0 3.461,-1.345 1.858,-1.282 3.781,-3.846 0,2.692 0.705,4.166 0.705,1.41 1.731,1.41 0.577,0 1.153,-0.385 0.577,-0.448 0.577,-0.897 0,-0.448 -0.577,-0.769 -1.281,-0.705 -1.281,-4.037 m -7.371,-3.845 q 2.435,-3.397 4.23,-3.397 1.282,0 1.282,1.987 0,2.563 -2.628,5.575 -2.692,3.076 -4.23,3.076 -1.026,0 -1.026,-1.602 0,-2.243 2.372,-5.639"
         id="path4884"
         inkscape:connector-curvature="0"
         style="fill:#000066" />
      <path
         d="m 159.578,32.349 q -0.256,0 -0.705,0.449 -3.077,3.268 -6.025,3.268 -1.346,0 -1.987,-0.641 -0.641,-0.705 -0.641,-1.858 0,-0.577 0.705,-0.962 3.461,-1.858 5.576,-3.781 2.051,-1.986 2.051,-4.101 0,-0.961 -0.641,-1.602 -0.64,-0.705 -1.666,-0.705 -3.205,0 -5.832,3.589 -2.692,3.524 -2.692,7.498 0,2.307 1.217,3.652 1.218,1.282 3.461,1.282 2.628,0 5.128,-1.987 2.435,-1.986 2.435,-3.396 0,-0.705 -0.384,-0.705 m -3.333,-6.985 q 0,2.115 -5.832,5.575 0.641,-2.691 2.243,-4.55 1.602,-1.858 2.884,-1.858 0.705,0 0.705,0.833"
         id="path4886"
         inkscape:connector-curvature="0"
         style="fill:#000066" />
      <path
         d="m 140.542,20.429 q 1.218,0.833 1.218,2.051 0,2.179 -2.692,3.845 -2.692,1.602 -3.781,1.602 -0.257,0 -0.769,-0.064 -0.513,-0.064 -0.705,-0.064 -0.706,0 -1.154,0.385 -0.513,0.384 -0.513,0.897 0,0.641 0.385,0.833 0.384,0.256 1.282,0.256 0.512,0.064 4.678,3.525 1.923,1.666 3.654,3.012 1.794,1.345 2.627,1.345 0.385,0 0.834,-0.448 0.448,-0.449 0.448,-0.897 0,-0.641 -0.641,-1.09 -2.371,-1.474 -5.191,-3.653 -2.884,-2.178 -2.884,-2.435 0,-0.128 0.32,-0.256 2.82,-1.089 4.679,-2.884 1.794,-1.858 1.794,-3.909 0,-2.115 -1.73,-3.46 -1.731,-1.41 -4.615,-1.41 -1.858,0 -5.896,0.641 l -1.218,-0.065 q -0.385,0 -0.897,0.385 -0.513,0.384 -0.513,0.897 0,0.256 0.577,1.154 0.064,0.192 0.064,0.256 0,0.064 -0.064,0.577 -1.987,9.164 -1.987,14.675 0,2.307 1.474,2.307 0.513,0 0.961,-0.385 0.385,-0.448 0.385,-0.897 0,-0.448 -0.128,-1.153 -0.128,-0.705 -0.128,-1.73 0,-1.282 0.32,-3.974 0.321,-2.755 0.833,-5.831 0.577,-3.076 0.833,-3.653 0.193,-0.577 0.577,-0.705 0.385,-0.128 1.795,-0.32 1.346,-0.193 2.756,-0.193 1.794,0 3.012,0.833"
         id="path4888"
         inkscape:connector-curvature="0"
         style="fill:#000066" />
      <path
         d="m 158.04,75.926 q -0.321,0.577 -0.321,1.474 0,0.384 -0.384,2.307 -1.026,5.511 -1.026,8.01 0,2.5 1.346,2.5 0.513,0 0.961,-0.385 0.449,-0.448 0.449,-0.705 0,-0.128 -0.064,-0.384 -0.256,-1.282 -0.256,-2.371 0,-2.115 0.192,-3.717 0.256,-1.538 1.282,-5.191 0.192,-0.705 0.192,-1.089 0,-0.449 -0.384,-0.769 -0.385,-0.321 -1.09,-0.321 -0.577,0 -0.897,0.641"
         id="path4890"
         inkscape:connector-curvature="0"
         style="fill:#000066" />
      <path
         d="m 148.298,75.542 q -1.346,0 -2.436,1.217 -1.09,1.218 -2.243,3.525 -2.179,4.422 -2.82,4.422 -0.064,0 -0.257,-0.577 -0.192,-0.577 -0.192,-1.666 -0.128,-4.55 -0.641,-5.704 -0.577,-1.217 -1.474,-1.217 -1.154,0 -2.243,1.025 -1.154,1.025 -3.461,4.87 -1.667,2.756 -2.5,3.589 0,-0.705 0.577,-4.166 0.513,-3.011 0.513,-4.037 0,-2.243 -1.539,-2.243 -0.769,0 -0.769,0.962 0,0.897 -0.384,3.011 -0.898,5.319 -0.898,7.37 0,3.589 0.962,3.589 0.384,0 1.025,-0.192 0.641,-0.193 0.833,-0.385 0.257,-0.256 1.667,-2.82 4.23,-7.562 5.512,-7.562 0.513,0.705 0.769,5.063 0.128,2.628 0.256,3.268 0.129,0.705 0.577,1.154 0.449,0.513 1.026,0.513 0.705,0 1.41,-0.898 0.705,-0.897 2.051,-3.524 1.794,-3.333 2.563,-4.486 0.834,-1.09 1.41,-1.09 0.385,0 0.513,0.769 0.193,0.769 0.385,2.564 0.448,4.486 1.346,5.831 0.833,1.346 1.923,1.346 0.576,0 1.217,-0.512 0.705,-0.513 0.705,-0.962 0,-0.512 -0.833,-0.897 -1.154,-0.513 -1.538,-2.435 -0.449,-1.859 -0.641,-4.166 -0.256,-2.242 -0.769,-3.396 -0.513,-1.153 -1.602,-1.153"
         id="path4892"
         inkscape:connector-curvature="0"
         style="fill:#000066" />
      <path
         d="m 122.468,75.093 q -0.641,0.256 -1.41,0.833 -0.769,0.577 -1.731,1.666 -0.961,1.09 -1.73,2.371 -0.769,1.154 -1.731,3.333 -0.192,0.448 -0.32,0.705 l 0,-0.898 q 0.128,-2.499 0.256,-3.14 0.129,-0.512 0.193,-0.961 0.064,-0.384 0.384,-1.474 0.257,-1.025 0.257,-1.538 0,-0.384 -0.257,-0.705 -0.256,-0.32 -0.769,-0.32 -0.513,0 -0.961,0.384 -0.449,0.321 -0.577,0.769 -0.192,0.385 -0.257,1.474 -0.128,0.961 -0.128,1.218 -0.256,1.602 -0.32,4.165 -0.064,2.243 -0.064,2.884 0,2.371 0.256,3.396 0.321,0.962 1.026,0.962 0.641,0 1.025,-0.321 0.385,-0.32 0.577,-1.41 0.513,-4.165 3.076,-7.626 2.5,-3.46 3.974,-3.46 0.513,0 1.026,0.513 0.448,0.448 1.025,0.448 0.577,0 0.833,-0.32 0.257,-0.321 0.257,-0.769 0,-0.961 -0.769,-1.666 -0.705,-0.769 -1.923,-0.769 -0.577,0 -1.218,0.256"
         id="path4894"
         inkscape:connector-curvature="0"
         style="fill:#000066" />
      <path
         d="m 108.432,76.439 q 0,-0.962 -0.641,-1.602 -0.641,-0.705 -1.667,-0.705 -3.204,0 -5.832,3.588 -2.692,3.525 -2.692,7.498 0,2.307 1.218,3.653 1.217,1.282 3.461,1.282 2.628,0 5.127,-1.987 2.436,-1.987 2.436,-3.396 0,-0.705 -0.385,-0.705 -0.256,0 -0.705,0.448 -3.076,3.269 -6.025,3.269 -1.346,0 -1.986,-0.641 -0.641,-0.705 -0.641,-1.859 0,-0.576 0.705,-0.961 3.461,-1.858 5.576,-3.781 2.051,-1.987 2.051,-4.101 m -3.013,-0.193 q 0.705,0 0.705,0.834 0,2.114 -5.832,5.575 0.641,-2.692 2.243,-4.55 1.602,-1.859 2.884,-1.859"
         id="path4896"
         inkscape:connector-curvature="0"
         style="fill:#000066" />
      <path
         d="m 204.123,74.708 q -3.333,0 -5.705,3.461 -2.371,3.46 -2.371,6.985 0,2.115 1.218,3.525 1.217,1.474 3.076,1.474 3.077,0 5.897,-3.076 2.82,-3.076 2.82,-6.665 0,-2.307 -1.346,-3.973 -1.346,-1.731 -3.589,-1.731 m 2.627,6.024 q 0,2.756 -2.051,4.999 -2.051,2.243 -4.102,2.243 -0.961,0 -1.538,-0.897 -0.641,-0.898 -0.641,-2.243 0,-2.5 1.603,-5.191 1.602,-2.756 3.845,-2.756 1.346,0 2.115,1.09 0.769,1.025 0.769,2.755"
         id="path4898"
         inkscape:connector-curvature="0"
         style="fill:#000066" />
      <path
         d="m 195.15,67.595 q 0,-0.256 -0.449,-0.577 -0.513,-0.32 -0.897,-0.32 -0.834,0 -1.475,0.577 -0.641,0.576 -0.641,1.153 0,0.641 0.385,1.538 0.064,0.257 0.128,0.449 0.128,0.577 0.449,0.577 0.384,0 1.089,-0.321 0.77,-0.384 1.09,-1.474 0.321,-1.089 0.321,-1.602"
         id="path4900"
         inkscape:connector-curvature="0"
         style="fill:#000066" />
      <path
         d="m 190.15,75.926 q -0.32,0.577 -0.32,1.474 0,0.384 -0.385,2.307 -1.025,5.511 -1.025,8.01 0,2.5 1.346,2.5 0.512,0 0.961,-0.385 0.449,-0.448 0.449,-0.705 0,-0.128 -0.064,-0.384 -0.257,-1.282 -0.257,-2.371 0,-2.115 0.193,-3.717 0.256,-1.538 1.281,-5.191 0.193,-0.705 0.193,-1.089 0,-0.449 -0.385,-0.769 -0.384,-0.321 -1.089,-0.321 -0.577,0 -0.898,0.641"
         id="path4902"
         inkscape:connector-curvature="0"
         style="fill:#000066" />
      <path
         d="m 184.574,76.439 q 0.192,0 0.577,-0.321 0.385,-0.256 0.385,-0.705 0,-0.961 -0.513,-1.345 -0.513,-0.385 -1.603,-0.385 -1.73,0 -4.486,1.794 -2.756,1.859 -2.756,4.55 0,1.09 0.961,1.923 1.026,0.897 3.782,2.307 2.243,1.153 2.243,2.051 -0.449,0.769 -2.179,1.281 -1.731,0.513 -3.269,0.513 -0.192,0 -0.769,-0.192 -0.577,-0.128 -0.769,-0.128 -0.513,0 -1.026,0.256 -0.512,0.256 -0.512,0.769 0,1.538 2.243,1.538 2.628,0 5.576,-1.218 2.884,-1.153 2.884,-3.268 0,-1.153 -0.897,-1.987 -0.961,-0.897 -2.5,-1.602 -1.922,-0.897 -2.692,-1.538 -0.769,-0.641 -0.769,-1.41 0,-1.281 2.115,-2.242 2.115,-1.026 2.82,-1.026 0.129,0 0.577,0.192 0.449,0.193 0.577,0.193"
         id="path4904"
         inkscape:connector-curvature="0"
         style="fill:#000066" />
      <path
         d="m 173.55,75.413 q 0,-0.961 -0.513,-1.345 -0.512,-0.385 -1.602,-0.385 -1.73,0 -4.486,1.794 -2.756,1.859 -2.756,4.55 0,1.09 0.961,1.923 1.025,0.897 3.781,2.307 2.244,1.153 2.244,2.051 -0.449,0.769 -2.179,1.281 -1.731,0.513 -3.269,0.513 -0.192,0 -0.769,-0.192 -0.577,-0.128 -0.769,-0.128 -0.513,0 -1.026,0.256 -0.513,0.256 -0.513,0.769 0,1.538 2.244,1.538 2.627,0 5.576,-1.218 2.884,-1.153 2.884,-3.268 0,-1.153 -0.897,-1.987 -0.962,-0.897 -2.5,-1.602 -1.923,-0.897 -2.692,-1.538 -0.769,-0.641 -0.769,-1.41 0,-1.281 2.115,-2.242 2.115,-1.026 2.82,-1.026 0.128,0 0.577,0.192 0.449,0.193 0.577,0.193 0.192,0 0.577,-0.321 0.384,-0.256 0.384,-0.705"
         id="path4906"
         inkscape:connector-curvature="0"
         style="fill:#000066" />
      <path
         d="m 162.718,69.197 q 0.321,-1.089 0.321,-1.602 0,-0.256 -0.449,-0.577 -0.512,-0.32 -0.897,-0.32 -0.833,0 -1.474,0.577 -0.641,0.576 -0.641,1.153 0,0.641 0.384,1.538 0.065,0.257 0.129,0.449 0.128,0.577 0.448,0.577 0.385,0 1.09,-0.321 0.769,-0.384 1.089,-1.474"
         id="path4908"
         inkscape:connector-curvature="0"
         style="fill:#000066" />
      <path
         d="m 53.824,67.339 q -0.448,0.641 -0.705,2.627 -0.961,8.523 -2.627,17.303 -0.257,1.089 -0.257,1.474 0,0.512 0.449,0.897 0.384,0.32 1.025,0.32 0.449,0 1.09,-0.64 0.641,-0.705 1.923,-3.012 4.422,-7.562 5.832,-7.562 0.641,0 0.897,0.897 0.257,0.897 0.449,3.781 0.257,3.012 1.09,4.229 0.833,1.218 1.923,1.218 0.448,0 0.833,-0.32 0.448,-0.321 0.448,-0.641 0,-0.449 -0.641,-1.282 -1.217,-1.602 -1.538,-5.319 -0.384,-3.46 -0.897,-4.422 -0.577,-1.025 -1.41,-1.025 -3.333,0 -8.46,9.484 l -0.065,0 q -0.128,0 -0.128,-0.192 0,-0.769 0.641,-4.165 0.705,-3.397 1.282,-5.576 1.218,-4.421 1.218,-6.921 0,-0.897 -0.449,-1.345 -0.513,-0.513 -1.089,-0.513 -0.321,0 -0.834,0.705"
         id="path4910"
         inkscape:connector-curvature="0"
         style="fill:#000066" />
      <path
         d="m 44.146,72.658 q 0.513,-1.795 0.513,-1.987 0,-0.32 -0.32,-0.769 -0.321,-0.384 -0.898,-0.384 -0.961,0 -1.346,1.409 -0.32,1.474 -0.705,3.012 -0.448,1.474 -0.641,1.731 -0.256,0.256 -0.512,0.256 l -2.884,0 q -0.77,0 -0.77,0.769 0,1.41 1.731,1.41 l 1.474,-0.128 q 0.321,0 0.321,0.256 0,0.577 -0.706,3.525 -0.705,3.012 -0.705,4.421 0,3.91 3.333,3.91 2.051,0 3.91,-1.603 1.923,-1.538 1.923,-2.563 0,-0.641 -0.577,-0.641 -0.449,0 -1.282,0.769 -2.115,1.731 -3.269,1.731 -0.833,0 -1.217,-0.449 -0.385,-0.513 -0.385,-2.051 0,-0.897 0.705,-4.037 0.705,-3.14 0.833,-3.268 0.128,-0.193 1.795,-0.385 1.666,-0.256 3.717,-0.384 1.538,-0.064 1.538,-1.154 0,-0.512 -0.256,-0.705 -0.32,-0.192 -1.346,-0.192 -0.833,0 -2.051,0.128 -1.282,0.192 -2.692,0.257 l 0.769,-2.884"
         id="path4912"
         inkscape:connector-curvature="0"
         style="fill:#000066" />
      <path
         d="m 35.173,70.671 q 0.769,-0.384 1.09,-1.474 0.32,-1.089 0.32,-1.602 0,-0.256 -0.448,-0.577 -0.513,-0.32 -0.898,-0.32 -0.833,0 -1.474,0.577 -0.641,0.576 -0.641,1.153 0,0.641 0.385,1.538 0.064,0.257 0.128,0.449 0.128,0.577 0.449,0.577 0.384,0 1.089,-0.321"
         id="path4914"
         inkscape:connector-curvature="0"
         style="fill:#000066" />
      <path
         d="m 33.763,77.464 q 0.193,-0.705 0.193,-1.089 0,-0.449 -0.385,-0.769 -0.385,-0.321 -1.09,-0.321 -0.576,0 -0.897,0.641 -0.32,0.577 -0.32,1.474 0,0.384 -0.385,2.307 -1.025,5.511 -1.025,8.01 0,2.5 1.346,2.5 0.512,0 0.961,-0.385 0.449,-0.448 0.449,-0.705 0,-0.128 -0.064,-0.384 -0.257,-1.282 -0.257,-2.371 0,-2.115 0.192,-3.717 0.257,-1.538 1.282,-5.191"
         id="path4916"
         inkscape:connector-curvature="0"
         style="fill:#000066" />
      <path
         d="m 17.612,76.631 q 0,-1.089 -1.154,-1.218 -0.897,0.705 -1.794,2.5 l -0.449,0.833 q -0.577,1.025 -1.987,3.652 -2.115,4.23 -2.564,4.23 -0.512,0 -1.282,-2.499 -0.769,-2.5 -0.769,-4.55 0,-1.282 0.129,-2.179 0.128,-1.218 0.128,-1.346 l 0,-0.064 q 0,-0.448 -0.385,-0.833 -0.32,-0.449 -0.577,-0.513 -0.256,0 -0.32,0 -0.705,0.064 -1.218,0.705 -0.513,0.705 -0.513,1.666 0,3.141 1.474,8.203 1.411,5.063 3.141,5.063 0.577,0 1.859,-2.051 1.282,-2.051 2.499,-4.678 1.475,-3.204 1.859,-3.204 0.192,0.448 0.385,1.089 1.73,5.255 2.82,6.473 1.025,1.217 2.692,1.217 0.32,0 0.833,-1.025 0.513,-1.089 1.859,-5.191 1.538,-4.742 3.268,-6.985 0.128,-0.192 0.128,-0.705 0,-0.32 -0.192,-0.641 -0.256,-0.32 -0.641,-0.32 -0.577,0 -1.089,0.384 -0.449,0.385 -1.474,2.371 -1.026,1.987 -2.244,5.96 -0.897,2.884 -1.282,2.884 -0.576,0 -1.922,-2.756 -1.282,-2.819 -1.282,-5.319 0,-0.384 0,-0.576 0.064,-0.257 0.064,-0.577"
         id="path4918"
         inkscape:connector-curvature="0"
         style="fill:#000066" />
      <path
         d="m 94.972,77.977 q 0,-1.538 -0.961,-2.628 -0.962,-1.025 -2.372,-1.025 -1.922,0 -4.23,1.987 -2.307,2.05 -4.358,5.639 0,-0.385 0.384,-2.756 0.257,-1.922 0.257,-3.268 0,-0.961 -0.321,-1.474 -0.32,-0.513 -0.641,-0.513 -0.705,0 -1.281,0.705 -0.513,0.641 -0.513,2.179 L 81,77.977 q 0,7.69 -2.564,17.815 -0.32,1.346 -0.32,2.115 0,0.256 0.512,0.705 0.577,0.448 0.962,0.448 0.384,0 0.769,-0.576 0.449,-0.513 0.513,-1.09 l 0.384,-2.563 q 0.641,-4.486 1.282,-6.985 0.513,1.089 1.026,1.474 0.448,0.448 1.217,0.448 3.269,0 6.73,-3.653 3.461,-3.652 3.461,-8.138 m -2.884,-0.641 q 0.449,0.513 0.449,1.538 0,2.82 -2.564,5.703 -2.564,2.884 -4.551,2.884 -0.897,0 -1.41,-0.448 -0.577,-0.449 -0.577,-0.962 0,-1.986 2.82,-5.639 2.885,-3.653 4.807,-3.653 0.641,0 1.026,0.577"
         id="path4920"
         inkscape:connector-curvature="0"
         style="fill:#000066" />
    </g>
  </g>
  <flowRoot
     xml:space="preserve"
     id="flowRoot4937"
     style="fill:black;stroke:none;stroke-opacity:1;stroke-width:1px;stroke-linejoin:miter;stroke-linecap:butt;fill-opacity:1;font-family:sans-serif;font-style:normal;font-weight:normal;font-size:15px;line-height:125%;letter-spacing:0px;word-spacing:0px"><flowRegion
       id="flowRegion4939"><rect
         id="rect4941"
         width="836.86798"
         height="286.50735"
         x="237.20143"
         y="71.027557" /></flowRegion><flowPara
       id="flowPara4943" /></flowRoot>  <text
     xml:space="preserve"
     style="font-style:normal;font-weight:normal;font-size:41.63418961px;line-height:137.99999952%;font-family:sans-serif;letter-spacing:0px;word-spacing:0px;fill:#0066cc;fill-opacity:1;stroke:none;stroke-width:1px;stroke-linecap:butt;stroke-linejoin:miter;stroke-opacity:1"
     x="648.49408"
     y="135.47897"
     id="text4945"
     sodipodi:linespacing="138%"
     transform="scale(0.98539468,1.0148218)"><tspan
       sodipodi:role="line"
       id="tspan4947"
       x="648.49408"
       y="135.47897"
       style="font-style:normal;font-variant:normal;font-weight:normal;font-stretch:normal;font-size:124.66218567px;line-height:137.99999952%;font-family:Jokerman;-inkscape-font-specification:Jokerman;text-align:center;text-anchor:middle;fill:#0066cc;fill-opacity:1"
       rotate="0 0 0 0 0 0 0 0 0 0 0 0 0 0">Surprise From</tspan><tspan
       sodipodi:role="line"
       x="648.49408"
       y="307.51279"
       id="tspan4949"
       style="font-style:normal;font-variant:normal;font-weight:normal;font-stretch:normal;font-size:124.66218567px;line-height:137.99999952%;font-family:Jokerman;-inkscape-font-specification:Jokerman;text-align:center;text-anchor:middle;fill:#0066cc;fill-opacity:1"
       rotate="0 0 0 0 0 0 0 0 0 0 0">Down Under</tspan></text>
  <text
     xml:space="preserve"
     style="font-style:normal;font-weight:normal;font-size:40px;line-height:125%;font-family:sans-serif;letter-spacing:0px;word-spacing:0px;fill:#ff0000;fill-opacity:1;stroke:none;stroke-width:1px;stroke-linecap:butt;stroke-linejoin:miter;stroke-opacity:1"
     x="639.06555"
     y="631.8432"
     id="text4959"
     sodipodi:linespacing="125%"><tspan
       sodipodi:role="line"
       id="tspan4961"
       x="639.06555"
       y="631.8432"
       style="font-style:normal;font-variant:normal;font-weight:normal;font-stretch:normal;font-size:135px;font-family:Jokerman;-inkscape-font-specification:Jokerman;text-align:center;text-anchor:middle;fill:#ff0000;fill-opacity:1">Press PLAY Button</tspan></text>
</svg>
